<svg xmlns="http://www.w3.org/2000/svg" version="1.1" xmlns:xlink="http://www.w3.org/1999/xlink" width="512" height="512" x="0" y="0" viewBox="0 0 24 24" style="enable-background:new 0 0 512 512" xml:space="preserve"><g><linearGradient id="a" x1="4.1" x2="24.266" y1="8.597" y2="18" gradientUnits="userSpaceOnUse"><stop offset="0" stop-color="#fff" stop-opacity=".2"></stop><stop offset="1" stop-color="#fff" stop-opacity="0"></stop></linearGradient><path fill="#333333" d="M18.933 13.249c-.01-.016-.933-1.62-.933-2.749V6.438C18 3.033 16.13 1 13 1 9.523 1 7.62 2.398 7.01 5.4l-.103.508 3.976.663.104-.46C11.168 5.321 11.607 5 12.5 5c.67 0 1.355.195 1.48 1.537-1.015.087-3.347.35-4.7 1.014C7.41 8.47 6.5 9.924 6.5 12c0 2.393 1.607 4 4 4 2.248 0 3.424-.65 4.028-1.246a7.764 7.764 0 0 0 1.757 1.198l.32.151 2.52-2.521zM12 12.5c-.664 0-1-.336-1-1 0-1.548 1.8-1.912 2.977-1.984-.202 2.18-1.649 2.98-1.977 2.984z" opacity="1" data-original="#333333"></path><path fill="#fff" d="M13 1.25c3.13 0 5 2.033 5 5.438v-.25C18 3.033 16.13 1 13 1 9.523 1 7.62 2.398 7.01 5.4l-.103.508.049.008.054-.266c.61-3.002 2.513-4.4 5.99-4.4z" opacity=".1"></path><path fill="#010101" d="m16.604 15.853-.319-.151a7.764 7.764 0 0 1-1.757-1.198c-.604.595-1.78 1.246-4.028 1.246-2.358 0-3.946-1.565-3.991-3.9-.002.05-.009.098-.009.15 0 2.393 1.607 4 4 4 2.248 0 3.424-.65 4.028-1.246a7.764 7.764 0 0 0 1.757 1.198l.32.151 2.52-2.521-.092-.159z" opacity=".2"></path><path fill="#f79120" d="M21.544 18.704A.498.498 0 0 0 21 18.52c-.05.014-4.69 1.479-9 1.479-4.594 0-9.854-1.561-11.147-2.854a.5.5 0 0 0-.73.682C.305 18.04 4.7 23 12 23c7.339 0 9.455-3.57 9.557-3.722a.5.5 0 0 0-.013-.574z"></path><path fill="#f79120" d="M22 16.5c-1.286 0-2.624.512-2.68.534a.5.5 0 0 0 .139.964c.941.079 2.074.243 2.459.383.013.414-.185 1.565-.405 2.505a.5.5 0 0 0 .875.43C22.553 21.111 24 19.292 24 18c0-1.5-1.505-1.5-2-1.5z"></path><path fill="#010101" d="M21.557 19.028c-.102.152-2.218 3.722-9.557 3.722-7.3 0-11.694-4.96-11.878-5.172a.493.493 0 0 1-.1-.193.493.493 0 0 0 .1.443C.306 18.04 4.7 23 12 23c7.339 0 9.455-3.57 9.557-3.722a.481.481 0 0 0 .045-.404c-.014.052-.014.107-.045.154z" opacity=".1"></path><path fill="#fff" d="M19.32 17.284c.056-.022 1.394-.534 2.68-.534.48 0 1.897.012 1.984 1.38.003-.043.016-.089.016-.13 0-1.5-1.505-1.5-2-1.5-1.286 0-2.624.512-2.68.534a.5.5 0 0 0-.315.537c.002.018.012.033.016.05a.497.497 0 0 1 .298-.337z" opacity=".2"></path><path fill="url(#a)" d="M6.5 12c0 2.393 1.607 4 4 4 2.248 0 3.424-.65 4.028-1.246a7.764 7.764 0 0 0 1.757 1.198l.32.151 2.52-2.521-.192-.333c-.01-.016-.933-1.62-.933-2.749V6.438C18 3.033 16.13 1 13 1 9.523 1 7.62 2.398 7.01 5.4l-.103.508 3.976.663.104-.46C11.168 5.321 11.607 5 12.5 5c.67 0 1.355.195 1.48 1.537-1.015.087-3.347.35-4.7 1.014C7.41 8.47 6.5 9.924 6.5 12zm7.477-2.484c-.202 2.18-1.649 2.98-1.977 2.984-.664 0-1-.336-1-1 0-1.548 1.8-1.912 2.977-1.984zm7.567 9.188A.498.498 0 0 0 21 18.52c-.05.014-4.69 1.479-9 1.479-4.594 0-9.854-1.561-11.147-2.854a.5.5 0 0 0-.73.682C.305 18.04 4.7 23 12 23c7.339 0 9.455-3.57 9.557-3.722a.5.5 0 0 0-.013-.574zM22 16.5c-1.286 0-2.624.512-2.68.534a.5.5 0 0 0 .139.964c.941.079 2.074.243 2.459.383.013.414-.185 1.565-.405 2.505a.5.5 0 0 0 .875.43C22.553 21.111 24 19.292 24 18c0-1.5-1.505-1.5-2-1.5z"></path></g></svg>