<svg xmlns="http://www.w3.org/2000/svg" version="1.1" xmlns:xlink="http://www.w3.org/1999/xlink" width="512" height="512" x="0" y="0" viewBox="0 0 512 512" style="enable-background:new 0 0 512 512" xml:space="preserve" class=""><g><path d="M460.865 126.707 264.101 2.349a15.16 15.16 0 0 0-16.202 0L51.134 126.707a15.165 15.165 0 0 0 8.101 27.982h393.528a15.164 15.164 0 0 0 8.102-27.982zM426.888 163.756h-52.772c-8.375 0-15.164 6.789-15.164 15.164v222.095c0 8.375 6.789 15.164 15.164 15.164h52.772c8.375 0 15.164-6.789 15.164-15.164V178.92c0-8.375-6.789-15.164-15.164-15.164zM282.385 163.756h-52.772c-8.375 0-15.164 6.789-15.164 15.164v222.095c0 8.375 6.789 15.164 15.164 15.164h52.772c8.375 0 15.164-6.789 15.164-15.164V178.92c.001-8.375-6.788-15.164-15.164-15.164zM136.847 163.756H84.075c-8.375 0-15.164 6.789-15.164 15.164v222.095c0 8.375 6.789 15.164 15.164 15.164h52.772c8.375 0 15.164-6.789 15.164-15.164V178.92c0-8.375-6.79-15.164-15.164-15.164z" style="" fill="#8cbcff" data-original="#8cbcff"></path><path d="M136.846 163.752H110.46v252.431h26.386c8.371 0 15.164-6.794 15.164-15.164V178.916c0-8.371-6.794-15.164-15.164-15.164z" style="" fill="#6aa9ff" data-original="#6aa9ff"></path><path d="M480.883 124.362H31.117c-15.569 0-28.237 12.667-28.237 28.237v29.029c0 15.569 12.667 28.237 28.237 28.237h449.767c15.569 0 28.238-12.667 28.238-28.237v-29.029c-.001-15.571-12.669-28.237-28.239-28.237zM452.764 371.319H59.235c-8.375 0-15.164 6.789-15.164 15.164v55.175c0 8.375 6.789 15.164 15.164 15.164h393.528c8.375 0 15.164-6.789 15.164-15.164v-55.175c.001-8.375-6.788-15.164-15.163-15.164z" style="" fill="#2682ff" data-original="#2682ff"></path><path d="M493.957 426.493H18.043c-8.375 0-15.164 6.789-15.164 15.164v55.175c0 8.375 6.789 15.164 15.164 15.164h475.913c8.375 0 15.164-6.789 15.164-15.164v-55.175c.001-8.375-6.789-15.164-15.163-15.164z" style="" fill="#0051bf" data-original="#0051bf"></path><path d="M467.327 143.745a15.164 15.164 0 0 1-14.568 10.948H256V0c2.81 0 5.621.778 8.098 2.345l193.059 122.02 3.71 2.345a15.158 15.158 0 0 1 6.46 17.035zM426.889 163.752h-26.385v252.431h26.385c8.371 0 15.164-6.794 15.164-15.164V178.916c0-8.371-6.793-15.164-15.164-15.164zM282.385 163.752H256v252.431h26.386c8.371 0 15.164-6.794 15.164-15.164V178.916c0-8.371-6.794-15.164-15.165-15.164z" style="" fill="#6aa9ff" data-original="#6aa9ff"></path><path d="M509.119 152.601v29.024c0 15.568-12.667 28.236-28.236 28.236H256v-85.495h224.883c15.569 0 28.236 12.667 28.236 28.235zM467.923 386.482v55.177c0 8.371-6.783 15.164-15.164 15.164H256v-85.505h196.759c8.381 0 15.164 6.793 15.164 15.164z" style="" fill="#046eff" data-original="#046eff"></path><path d="M509.119 441.659v55.177c0 8.371-6.783 15.164-15.164 15.164H256v-85.505h237.955c8.38 0 15.164 6.783 15.164 15.164z" style="" fill="#00347b" data-original="#00347b"></path></g></svg>