<svg xmlns="http://www.w3.org/2000/svg" version="1.1" xmlns:xlink="http://www.w3.org/1999/xlink" width="512" height="512" x="0" y="0" viewBox="0 0 200 200" style="enable-background:new 0 0 512 512" xml:space="preserve" class=""><g><g data-name="Layer 2"><g data-name="Flat Color"><g data-name="Dai (DAI)"><circle cx="100" cy="100" r="100" fill="#f4b937" opacity="1" data-original="#f4b937" class=""></circle><path fill="#fefefd" d="M106.29 105.46h28.88c.6 0 .87 0 .93-.82a48.34 48.34 0 0 0 0-8.84c0-.6-.28-.82-.88-.82H77.8c-.71 0-.93 0-.93.93v8.46c0 1.09 0 1.09 1.15 1.09zm26.58-20.36a.7.7 0 0 0 0-.66 19.7 19.7 0 0 0-1.69-3 25.12 25.12 0 0 0-3.55-4.44 10 10 0 0 0-2.18-2.13 33.58 33.58 0 0 0-14.25-7.2 36 36 0 0 0-8.07-.88H77.8c-.71 0-.82.28-.82.93v16.83c0 .77 0 .93.93.93h54.47s.49 0 .55-.38zm0 30.24a8.77 8.77 0 0 0-2.4 0H77.8c-.71 0-1 0-1 .93v16.37c0 .77 0 .93 1 .93h24.29a10.76 10.76 0 0 0 3.49 0 35.67 35.67 0 0 0 10.42-2.46 16.22 16.22 0 0 0 3.44-1.58h.32a31.1 31.1 0 0 0 13.16-13.15s.33-.71 0-.88zm-65.5 26.91v-26.31c0-.66 0-.71-.76-.71H56c-.55 0-.77 0-.77-.76v-9h10.89c.6 0 .82 0 .82-.77v-9c0-.55 0-.71-.77-.71H56c-.55 0-.77 0-.77-.77v-8.36c0-.54 0-.65.77-.65h10.39c.71 0 .87 0 .87-.93v-25.6c0-.76 0-.93 1-.93h35.59a60 60 0 0 1 7.69.82A47.21 47.21 0 0 1 126.43 64a41.74 41.74 0 0 1 8.36 6.49 51.77 51.77 0 0 1 5.07 6.28 39.63 39.63 0 0 1 3.71 7.32 1.26 1.26 0 0 0 1.42 1h8.52c1.09 0 1.09 0 1.14 1V94c0 .76-.32.92-1 .92H147c-.65 0-.82 0-.76.88a57.16 57.16 0 0 1 0 8.68c0 .82 0 .92.87.92h7.53c.33.44 0 .82 0 1.26a8 8 0 0 1 0 1.69v5.46c0 .82 0 1-1 1h-8.95a1.2 1.2 0 0 0-1.42.93 37.53 37.53 0 0 1-9.93 14.51 58.73 58.73 0 0 1-5.08 4.1q-2.79 1.7-5.73 3.11a51.81 51.81 0 0 1-11.19 3.6 59.67 59.67 0 0 1-10.92.88H67.7z" opacity="1" data-original="#fefefd"></path></g></g></g></g></svg>