<svg xmlns="http://www.w3.org/2000/svg" version="1.1" xmlns:xlink="http://www.w3.org/1999/xlink" width="512" height="512" x="0" y="0" viewBox="0 0 512 512" style="enable-background:new 0 0 512 512" xml:space="preserve" class=""><g><path fill="#0f9d58" d="m421.181 93.611-225.181 60L256 512l153.718-203.621C434.059 276.14 448.5 236.009 448.5 192.5c0-36.16-9.979-69.985-27.319-98.889z" opacity="1" data-original="#0f9d58"></path><path fill="#31aa52" d="M181.016 412.674 256 512V313.057z" opacity="1" data-original="#31aa52"></path><path fill="#f69411" d="m256 313.057 57.926-76.955L256 192.5l-60 60.278z" opacity="1" data-original="#f69411"></path><path fill="#4175df" d="m256 0-60 65.969 60 65.969L305.338 6.393A192.759 192.759 0 0 0 256 0z" opacity="1" data-original="#4175df"></path><path fill="#4086f4" d="M102.198 76.73V192.5H256V0c-62.856 0-118.669 30.13-153.802 76.73z" opacity="1" data-original="#4086f4"></path><path fill="#eb4132" d="M102.198 76.73C77.907 108.95 63.5 149.041 63.5 192.5c0 36.158 9.981 69.979 27.322 98.88l137.25-119.902z" opacity="1" data-original="#eb4132"></path><path fill="#4086f4" d="M305.338 6.393 256 71.939l-72.5 164.163h130.426l107.255-142.49c-25.465-42.444-66.82-74.257-115.843-87.219z" opacity="1" data-original="#4086f4"></path><path fill="#609af6" d="m256 71.939-57.928 76.958L256 192.5z" opacity="1" data-original="#609af6"></path><path fill="#f8a808" d="m196 192.5 60 120.557 57.926-76.955z" opacity="1" data-original="#f8a808"></path><path fill="#fbbd00" d="M198.072 148.897 90.822 291.38a192.733 192.733 0 0 0 11.46 16.998l78.734 104.295L256 313.057V192.5z" opacity="1" data-original="#fbbd00"></path><path fill="#e3e7ea" d="m256 120-36.25 72.5L256 265c40.041 0 72.5-32.459 72.5-72.5S296.041 120 256 120z" opacity="1" data-original="#e3e7ea"></path><path fill="#ffffff" d="M183.5 192.5c0 40.041 32.459 72.5 72.5 72.5V120c-40.041 0-72.5 32.459-72.5 72.5z" opacity="1" data-original="#ffffff"></path></g></svg>