<svg xmlns="http://www.w3.org/2000/svg" version="1.1" xmlns:xlink="http://www.w3.org/1999/xlink" width="512" height="512" x="0" y="0" viewBox="0 0 512 512" style="enable-background:new 0 0 512 512" xml:space="preserve" class=""><g><path d="M512 256c0 28.442-4.639 55.808-13.208 81.377C464.792 438.868 368.933 512 256 512c-112.776 0-208.52-72.923-242.657-174.195C4.692 312.111 0 284.609 0 256a257.09 257.09 0 0 1 6.134-55.954C31.66 85.567 133.831 0 256 0c124.74 0 228.645 89.213 251.382 207.318A257.658 257.658 0 0 1 512 256z" style="" fill="#f0efeb" data-original="#f0efeb" class=""></path><path d="M512 256c0 28.442-4.639 55.808-13.208 81.377-2.121 0-4.253-.01-6.384-.031-5.716-.052-7.105-1.421-7.126-7.262-.063-28.902-.052-57.804-.115-86.695-.01-7.68-3.02-10.783-10.177-10.752-7.126.031-10.209 3.218-10.219 10.773-.021 28.4 0 56.79.01 85.18 0 8.035-1.296 9.289-9.488 9.237-5.58-.031-11.149 0-16.729-.031-6.301-.031-7.816-1.62-7.826-8.328-.042-28.557-.042-57.125-.084-85.682-.01-7.534-2.926-10.888-9.404-11.076-7.68-.209-11.045 3.114-11.045 11.024-.021 28.568-.01 57.125-.01 85.682 0 6.875-.993 7.868-7.941 7.91-6.416.031-12.842-.021-19.257.042-4.368.042-6.51-1.797-6.499-6.374.042-41.577.042-83.143-.031-124.719-.01-4.483 2.058-6.646 6.332-6.708 7.095-.105 14.19.031 21.285-.042 4.472-.052 5.966 2.842 6.541 7.011 11.128-8.077 22.768-9.937 35.349-5.59 3.751 1.296 7.022 3.365 9.916 5.935 2.038 1.808 3.312 1.797 5.528.073 15.12-11.734 33.698-10.668 45.965.366A257.704 257.704 0 0 1 512 256z" style="" fill="#00b8f8" data-original="#00b8f8"></path><path d="M178.458 277.358h-.063c0-14.524 0-29.048-.01-43.572-.01-1.181-.178-2.361-.282-3.532-1.432-16.509-10.25-26.488-26.551-29.1-14.409-2.299-28.985-.679-43.489-.94-3.741-.073-5.204 2.529-5.172 6.102.052 5.914.01 11.828.021 17.732.021 6.625 1.379 8.046 7.983 8.088 8.777.063 17.565-.073 26.342.031 4.932.052 7.105 2.236 6.938 6.625-.157 4.389-2.466 6.29-6.855 6.154-4.89-.157-9.801-.136-14.691-.01-19.09.491-32.58 13.322-33.196 31.807-.293 8.934-.188 17.899-.104 26.843.188 21.473 12.204 33.458 33.729 33.604 13.176.094 26.342.052 39.518 0 10.856-.042 15.778-4.869 15.862-15.757.104-14.693.02-29.384.02-44.075zm-40.375 29.455c-14.179.658-14.493.408-14.493-13.751 0-3.041-.021-6.081.01-9.122.021-1.17-.167-2.518.324-3.49 3.427-6.823 9.78-3.459 14.9-3.845 3.772-.293 5.663 2.424 5.601 6.29-.042 2.863-.01 5.736-.01 8.61.01 2.873-.031 5.747.021 8.61.073 4.347-1.922 6.489-6.353 6.698zM279.345 256.622c-.006 15.208.084 30.418-.027 45.625-.16 22.015-13.895 35.601-35.951 35.687-11.491.045-22.981.04-34.472.003-6.268-.02-7.678-1.475-7.703-7.805-.025-6.421.123-12.846-.029-19.263-.113-4.738 2.089-6.827 6.68-6.842 10.139-.031 20.276-.147 30.415-.141 3.917.002 7.467-.745 7.461-5.457-.007-4.728-3.595-5.394-7.493-5.45-7.411-.109-14.88.612-22.192-1.246-14.314-3.637-24.389-14.919-24.879-29.618-.625-18.737-.285-37.507-.312-56.263-.005-3.915 2.052-5.849 6.026-5.822 6.928.048 13.857-.036 20.785.028 5.399.049 6.945 1.563 6.967 6.953.06 14.363.025 28.726.047 43.091.011 7.578 1.332 8.921 8.681 8.966 11.97.072 12.221-.185 12.215-12.054-.007-13.18-.028-26.362.025-39.542.025-6.198 1.244-7.371 7.465-7.418 6.083-.046 12.167-.037 18.25-.014 6.804.025 8.035 1.221 8.044 7.913.017 16.224.002 32.447-.003 48.669zM80.959 232.302c-.324-20.25-12.591-32.141-32.977-32.246-13.949-.063-27.909-.031-41.848-.01A257.09 257.09 0 0 0 0 256c0 28.609 4.692 56.111 13.343 81.805 1.797 0 3.584-.01 5.371-.021 6.322-.031 7.91-1.526 7.941-7.628.052-9.801.157-19.602 0-29.403-.052-3.051.752-4.106 3.939-4.012 6.917.219 13.855.219 20.773-.042 16.238-.627 28.275-11.786 29.236-27.92.732-12.121.544-24.315.356-36.477zm-33.918 24.607c-.063 3.824-2.152 5.925-5.987 6.029-3.699.104-7.419-.146-11.107.094-2.905.188-3.354-1.17-3.26-3.594.136-3.699.031-7.408.031-11.107.01-3.542.219-7.095-.052-10.606-.24-3.229 1.055-4.106 4.065-3.908 3.354.23 6.729-.021 10.094.084 4.023.125 6.228 2.226 6.238 6.343.031 5.558.072 11.117-.022 16.665z" style="" fill="#002875" data-original="#002875"></path><path d="M345.372 285.036c0 15.366.025 30.733-.014 46.099-.016 6.042-1.133 7.158-7.08 7.209-6.416.055-12.834.084-19.249-.004-5.779-.079-7.077-1.411-7.085-7.276-.041-30.226-.047-60.452-.046-90.677 0-6.628.037-6.628-6.333-6.636-13-.016-13-.016-13.001-13.076 0-4.559.059-9.12-.017-13.678-.074-4.502 1.732-6.873 6.544-6.974 11.979-.251 21.359-5.194 27.795-15.59 2.475-3.998 5.465-7.746 9.956-9.818 5.137-2.37 8.272-.505 8.358 5.07.088 5.74.107 11.483-.01 17.222-.048 2.372.695 3.332 3.169 3.196 3.198-.176 6.414-.015 9.622-.029 3.73-.017 5.653 1.838 5.677 5.545.048 7.429.076 14.858.033 22.288-.022 3.865-1.905 5.998-5.954 5.84-.337-.014-.675-.003-1.014.002-11.352.177-11.352.177-11.353 11.774.002 13.171.002 26.342.002 39.513z" style="" fill="#00b8f8" data-original="#00b8f8"></path></g></svg>