<?xml version="1.0" encoding="utf-8"?>
<!-- Generator: Adobe Illustrator 27.5.0, SVG Export Plug-In . SVG Version: 6.00 Build 0)  -->
<svg version="1.1" xmlns="http://www.w3.org/2000/svg" xmlns:xlink="http://www.w3.org/1999/xlink" x="0px" y="0px"
	 viewBox="0 0 500 500" style="enable-background:new 0 0 500 500;" xml:space="preserve">
<g id="BACKGROUND">
	<rect style="fill:#FFFFFF;" width="500" height="500"/>
</g>
<g id="OBJECTS">
	<g>
		<g>
			<path style="fill:#57D3D3;" d="M39.614,197.801c1.166,5.608-2.206,10.673-1.93,16.227c0.244,4.813,3.726,8.413,7.869,10.445
				c5.128,2.513,10.996,2.41,16.455,3.702c5.002,1.189,9.563,3.663,11.508,8.665c0.985,2.529,1.355,5.238,1.977,7.869
				c0.567,2.426,1.394,4.789,2.56,6.995c2.237,4.214,5.601,7.846,9.909,9.972c4.222,2.079,9.311,2.458,13.769,0.953
				c4.285-1.449,7.664-4.734,9.066-9.059c0.985-3.041,0.977-6.365-0.181-9.295c-1.709-9.311-12.8-12.706-19.59-17.936
				c-2.001-1.552-3.844-3.403-5.026-5.664c-1.355-2.599-1.733-5.538-1.709-8.436c0.031-5.073,1.071-10.13,0.134-15.187
				c-0.827-4.403-3.159-8.365-7.507-10.012c-2.489-0.945-5.183-1.119-7.759-1.772c-2.513-0.638-4.734-1.875-6.711-3.545
				c-7.499-6.341-11.556-18.621-22.772-19.354c-4.577-0.299-8.862,1.969-10.429,6.42c-1.694,4.773-0.118,9.807,2.3,14.013
				C34.36,187.687,38.432,192.137,39.614,197.801z"/>
			<path style="fill:#544FC9;" d="M34.042,168.952c7.355,1.398,13.786,6.57,16.591,13.547c0.233,0.579,0.424,1.166,0.599,1.756
				c0.392-1.316,0.784-2.631,1.176-3.947c0.163-0.545,0.847-0.808,1.355-0.62c0.563,0.209,0.783,0.808,0.62,1.355l-2.266,7.605
				c0.23,1.822,0.345,3.665,0.478,5.503c0.285,3.952,0.685,8.237,3.32,11.405c1.676,2.015,3.974,3.25,6.376,4.219
				c0.169-0.25,0.165-0.684,0.184-0.957c0.036-0.524,0.059-1.049,0.088-1.573l0.195-3.507c0.124-2.24,0.249-4.481,0.373-6.721
				c0.075-1.354,2.174-1.169,2.098,0.184c-0.141,2.533-0.281,5.065-0.422,7.598c-0.07,1.266-0.139,2.533-0.211,3.799
				c-0.037,0.642-0.092,1.326-0.335,1.923c0.351,0.125,0.701,0.248,1.049,0.368c3.504,1.213,7.156,2.367,10.106,4.7
				c2.221,1.756,3.878,3.912,5.18,6.287c0.115-0.573,0.206-1.153,0.318-1.715c0.218-1.091,0.436-2.181,0.654-3.272l1.338-6.693
				c0.112-0.562,0.529-1.005,1.141-0.957c0.52,0.04,1.069,0.584,0.957,1.141l-1.487,7.436c-0.258,1.289-0.516,2.578-0.773,3.867
				c-0.197,0.985-0.331,2.031-0.84,2.914c1.722,4.092,2.679,8.609,3.682,12.831c1.063,4.473,2.334,9.136,5.064,12.903
				c1.049-4.006,2.098-8.012,3.147-12.018c0.343-1.309,2.316-0.568,1.975,0.735c-1.158,4.422-2.316,8.844-3.474,13.267
				c2.972,3.065,7.114,5.138,11.45,4.282c1.333-0.263,1.71,1.81,0.381,2.072c-5.248,1.035-9.881-1.317-13.325-4.973
				c-0.019-0.004-0.04-0.001-0.058-0.006c-3.973-0.978-7.946-1.956-11.92-2.934c-0.557-0.137-0.796-0.864-0.62-1.355
				c0.21-0.586,0.805-0.755,1.355-0.62l9.088,2.237c-1.091-1.574-1.999-3.265-2.676-4.965c-2.563-6.433-3.115-13.703-5.746-20.114
				c-1.286,0.406-2.881,0.127-4.177,0.031c-2.548-0.188-5.096-0.377-7.644-0.565c-1.352-0.1-1.169-2.199,0.184-2.098
				c2.198,0.163,4.396,0.325,6.595,0.488c1.075,0.08,2.151,0.178,3.228,0.238c0.351,0.019,0.666,0.02,0.941-0.04
				c-0.505-1.011-1.073-1.995-1.728-2.944c-2.307-3.34-5.453-5.389-9.197-6.82c-2.02-0.772-4.097-1.415-6.118-2.188
				c-0.517,0.097-1.063,0.093-1.594,0.086c-1.293-0.017-2.585-0.037-3.878-0.055l-7.755-0.11c-1.356-0.019-1.166-2.118,0.184-2.098
				c2.287,0.032,4.573,0.065,6.86,0.097c0.612,0.009,1.225,0.017,1.837,0.026c-3.101-1.872-5.26-4.692-6.316-8.165
				c-1.201-3.95-1.072-8.141-1.513-12.208c-0.007-0.061-0.018-0.119-0.025-0.18c-2.669-1.234-5.337-2.468-8.006-3.702
				c-0.516-0.239-0.829-0.792-0.62-1.355c0.187-0.502,0.836-0.86,1.355-0.62c2.286,1.057,4.572,2.114,6.857,3.171
				c-0.732-3.448-2.157-6.606-4.563-9.343c-2.924-3.327-6.912-5.706-11.275-6.536C32.539,170.8,32.709,168.699,34.042,168.952z"/>
			<path style="fill:#544FC9;" d="M81.565,200.107c0.866,2.473,0.827,4.994,0.299,7.53c-0.937,4.529-3.198,8.909-2.859,13.635
				c0.291,3.978,2.804,6.948,5.979,9.114c3.08,2.103,6.632,3.568,9.437,6.073c1.599,1.434,2.725,3.19,3.261,5.278
				c0.63,2.505,0.63,5.136,1.355,7.617c1.237,4.246,4.797,7.507,9.153,8.326c3.568,0.67,7.286-0.567,9.917-2.993
				c3.033-1.709,5.569-4.269,7.176-7.389c2.198-4.269,2.655-9.413,1.189-13.99c-1.512-4.742-5.459-8.751-5.695-13.879
				c-0.213-4.6,2.363-8.822,3.836-13.021c1.402-3.986,1.757-8.129-0.67-11.792c-2.245-3.395-5.861-5.514-8.436-8.617
				c-1.394-1.678-2.284-3.592-2.466-5.79c-0.221-2.552,0.441-5.136,0.985-7.609c1.024-4.616,1.67-9.271-1.048-13.454
				c-2.332-3.576-6.436-6.002-10.76-5.868c-4.23,0.134-8.365,2.505-10.571,6.128c-1.3,2.143-1.646,4.553-2.253,6.948
				c-0.559,2.229-1.52,4.072-3.293,5.577c-3.033,2.576-7.16,3.97-9.437,7.381c-2.93,4.395-0.945,9.768,1.386,13.927
				C79.312,195.475,80.715,197.673,81.565,200.107z"/>
			<path style="fill:#7979E2;" d="M90.027,174.572l8.069,3.582c-0.549-0.852-1.055-1.717-1.471-2.615
				c-1.428-3.083-1.77-6.519-0.479-9.712c1.275-3.152,3.846-5.733,7.08-6.833c0.115-0.039,0.222-0.04,0.33-0.043
				c0.099-0.029,0.194-0.062,0.311-0.062c0.796,0,1.045,0.721,0.854,1.318c-0.037,0.286-0.204,0.545-0.571,0.679
				c-0.007,0.003-0.013,0.009-0.02,0.012c-0.001,0-0.001,0.001-0.002,0.001c-3.039,1.033-5.369,3.451-6.314,6.524
				c-0.945,3.071-0.009,6.104,1.543,8.794c0.51,0.884,1.073,1.741,1.655,2.589c1.025-2.099,2.049-4.197,3.074-6.296
				c0.589-1.206,2.571-0.486,1.975,0.735l-3.675,7.526c2.376,3.372,4.655,6.757,4.721,11.134c0.042,2.784-0.725,5.374-1.7,7.918
				c0.548-0.471,1.097-0.942,1.645-1.413c1.792-1.539,3.584-3.077,5.376-4.616c1.03-0.885,2.384,0.73,1.354,1.614
				c-2.034,1.746-4.068,3.493-6.102,5.239c-0.98,0.841-1.929,1.777-2.979,2.53c-0.259,0.186-0.536,0.317-0.82,0.401
				c-1.024,2.493-1.97,5.007-2.267,7.681c-0.502,4.518,1.095,8.634,3.25,12.527c2.549-3.95,5.099-7.899,7.648-11.849
				c0.735-1.139,2.455,0.078,1.719,1.218c-2.727,4.225-5.455,8.451-8.182,12.676c1.302,2.159,2.695,4.258,3.903,6.327
				c1.073,1.837,2.057,3.854,2.807,5.948c1.105-2.199,2.209-4.398,3.314-6.597c0.601-1.197,2.584-0.479,1.975,0.735
				c-1.473,2.933-2.947,5.865-4.42,8.798c0.993,4.306,0.732,8.751-2.082,12.553c-0.805,1.088-2.529-0.124-1.719-1.218
				c2.359-3.188,2.64-6.825,1.884-10.405c-3.528-2.079-7.055-4.157-10.583-6.236c-1.167-0.688,0.054-2.405,1.218-1.719
				c2.84,1.674,5.681,3.347,8.521,5.021c-0.885-2.483-2.14-4.869-3.413-6.975c-1.092-1.806-2.27-3.639-3.38-5.515
				c-4.478-3.385-8.956-6.771-13.434-10.156c-1.079-0.816,0.132-2.54,1.218-1.719c3.279,2.479,6.559,4.959,9.838,7.438
				c-1.576-3.392-2.584-6.967-2.201-10.835c0.279-2.819,1.307-5.477,2.4-8.115c-0.79-0.622-1.34-1.614-1.914-2.411
				c-0.789-1.094-1.577-2.189-2.366-3.283c-1.615-2.241-3.23-4.482-4.845-6.723c-0.789-1.095,0.819-2.456,1.614-1.354
				c2.704,3.752,5.399,7.511,8.112,11.257c0.056,0.077,0.155,0.245,0.268,0.416c1.237-3.02,2.327-6.062,2.244-9.341
				c-0.1-3.938-2.308-7.103-4.577-10.23c-3.713-1.648-7.425-3.296-11.138-4.944C88.06,176,88.783,174.019,90.027,174.572z"/>
			<path style="fill:#7979E2;" d="M47.692,267.268c2.556,0.578,4.672,1.949,6.542,3.742c3.342,3.198,5.855,7.438,10.041,9.658
				c3.526,1.863,7.377,1.309,10.897-0.233c3.417-1.495,6.544-3.729,10.155-4.777c2.064-0.595,4.15-0.618,6.204,0.036
				c2.458,0.795,4.688,2.191,7.175,2.893c4.255,1.204,8.908-0.084,11.914-3.341c2.461-2.669,3.385-6.477,2.724-9.994
				c0.16-3.478-0.664-6.986-2.456-10.003c-2.453-4.128-6.571-7.244-11.227-8.43c-4.822-1.234-10.314-0.016-14.786-2.536
				c-4.012-2.26-6.224-6.684-9.002-10.16c-2.635-3.303-5.959-5.802-10.351-5.689c-4.069,0.102-7.783,2.042-11.78,2.579
				c-2.162,0.292-4.257,0.031-6.216-0.982c-2.28-1.167-4.119-3.099-5.928-4.872c-3.369-3.317-6.973-6.334-11.96-6.25
				c-4.268,0.079-8.502,2.271-10.683,6.007c-2.131,3.657-2.315,8.42-0.414,12.212c1.127,2.238,2.986,3.811,4.694,5.596
				c1.593,1.657,2.645,3.449,2.98,5.75c0.574,3.937-0.434,8.176,1.25,11.915c2.171,4.816,7.778,5.983,12.54,6.214
				C42.57,266.72,45.177,266.698,47.692,267.268z"/>
			<path style="fill:#57D3D3;" d="M30.536,246.548l7.317-4.94c-1.013,0.013-2.016-0.017-2.997-0.141
				c-3.37-0.425-6.465-1.958-8.487-4.747c-1.995-2.753-2.819-6.302-2.036-9.626c0.028-0.118,0.084-0.209,0.138-0.302
				c0.028-0.099,0.05-0.198,0.112-0.296c0.422-0.675,1.165-0.504,1.57-0.024c0.223,0.184,0.354,0.462,0.273,0.845
				c-0.001,0.008,0.001,0.015-0.001,0.023c0,0.001,0,0.001,0,0.002c-0.737,3.124,0.077,6.382,2.18,8.814
				c2.102,2.43,5.17,3.246,8.273,3.358c1.02,0.037,2.046,0.014,3.072-0.029c-1.235-1.982-2.471-3.964-3.706-5.946
				c-0.71-1.139,0.952-2.437,1.671-1.284l4.43,7.108c4.119-0.225,8.197-0.361,11.943,1.905c2.382,1.441,4.171,3.466,5.809,5.642
				c-0.108-0.715-0.216-1.43-0.325-2.144c-0.353-2.335-0.707-4.67-1.06-7.006c-0.203-1.343,1.883-1.634,2.086-0.292
				c0.401,2.651,0.802,5.301,1.204,7.952c0.193,1.277,0.483,2.578,0.564,3.867c0.02,0.318-0.015,0.623-0.095,0.907
				c1.57,2.191,3.199,4.326,5.308,5.997c3.563,2.823,7.9,3.652,12.343,3.892c-1.995-4.256-3.991-8.513-5.986-12.769
				c-0.576-1.228,1.369-2.039,1.944-0.811c2.135,4.553,4.269,9.107,6.404,13.661c2.521,0.042,5.039-0.025,7.433,0.048
				c2.127,0.065,4.358,0.302,6.532,0.776c-1.278-2.103-2.556-4.206-3.834-6.309c-0.696-1.145,0.965-2.445,1.671-1.284
				c1.704,2.805,3.408,5.609,5.113,8.414c4.177,1.442,7.806,4.022,9.536,8.425c0.495,1.26-1.447,2.078-1.944,0.811
				c-1.45-3.691-4.385-5.859-7.82-7.118c-3.634,1.888-7.267,3.775-10.901,5.662c-1.202,0.625-2.01-1.322-0.811-1.944
				c2.926-1.52,5.851-3.039,8.777-4.559c-2.574-0.568-5.263-0.77-7.723-0.808c-2.111-0.033-4.288-0.007-6.468-0.061
				c-5.245,2-10.491,3.999-15.736,5.999c-1.264,0.482-2.083-1.46-0.811-1.944c3.842-1.464,7.683-2.929,11.524-4.393
				c-3.712-0.463-7.277-1.507-10.352-3.883c-2.242-1.732-3.949-4.013-5.605-6.34c-0.946,0.339-2.079,0.28-3.059,0.344
				c-1.346,0.088-2.692,0.176-4.038,0.264c-2.756,0.18-5.513,0.36-8.269,0.54c-1.347,0.088-1.647-1.998-0.292-2.086
				c4.615-0.301,9.231-0.592,13.846-0.904c0.095-0.006,0.29-0.001,0.494-0.006c-1.903-2.651-3.904-5.189-6.727-6.858
				c-3.391-2.004-7.245-1.812-11.1-1.548c-3.367,2.273-6.733,4.546-10.1,6.818C30.703,248.972,29.408,247.309,30.536,246.548z"/>
		</g>
		<g>
			<rect x="76.282" y="219.182" style="fill:#9090BF;" width="226.255" height="161.722"/>
			<rect x="81.948" y="219.242" style="fill:#D5D4E8;" width="220.589" height="161.662"/>
			<rect x="85.794" y="227.905" style="fill:#D5EFEE;" width="212.899" height="148.276"/>
			<circle style="fill:#9090BF;" cx="188.148" cy="223.705" r="2.989"/>
			<path style="fill:#B3E8E4;" d="M298.693,255.829v44.139c-9.08,1.665-17.897,5.774-25.388,10.821
				c-15.97,10.77-28.516,25.776-44.401,36.657c-7.828,5.368-16.384,9.519-25.7,11.523c-9.891,2.13-20.121,1.987-30.13,0.938
				c-21.363-2.223-42.431-8.961-64.09-7.304c-7.854,0.6-15.953,2.545-23.189,6.045V245.473c8.733,3.787,16.739,9.181,24.322,14.905
				c19.047,14.372,37.519,32.565,62.213,35.964c25.303,3.492,49.625-8.277,71.547-19.394c10.804-5.487,21.617-11.075,33.013-15.268
				C283.839,259.126,291.22,256.902,298.693,255.829z"/>
			<path style="fill:#D5D4E8;" d="M153.871,380.904c0,0-11.12,6.134-11.12,39.549h132.602v-9.675h-72.238
				c0,0-2.096-14.438,8.855-29.875H153.871z"/>
			<path style="fill:#9090BF;" d="M211.971,380.904l-67.985,22.111c0,0,2.009-16.357,9.885-22.111H211.971z"/>
			<rect x="142.925" y="410.779" style="fill:#9090BF;" width="132.428" height="2.711"/>
		</g>
		<g>
			<polygon style="fill:#E8428D;" points="139.064,242.143 139.064,281.905 94.297,281.905 94.297,249.028 111.737,249.028 
				113.371,242.143 			"/>
			<polygon style="fill:#F995CC;" points="139.066,281.903 94.295,281.903 99.097,249.028 143.867,249.028 			"/>
		</g>
		<g>
			<polygon style="fill:#E8428D;" points="139.064,286.121 139.064,325.883 94.297,325.883 94.297,293.006 111.737,293.006 
				113.371,286.121 			"/>
			<polygon style="fill:#F995CC;" points="139.066,325.881 94.295,325.881 99.097,293.006 143.867,293.006 			"/>
		</g>
		<g>
			<polygon style="fill:#E8428D;" points="140.489,331.672 140.489,371.434 95.722,371.434 95.722,338.557 113.162,338.557 
				114.796,331.672 			"/>
			<polygon style="fill:#F995CC;" points="140.49,371.432 95.72,371.432 100.522,338.557 145.292,338.557 			"/>
		</g>
		<g>
			<rect x="163.451" y="326.63" style="fill:#D5D4E8;" width="27.413" height="40.708"/>
			<rect x="165.942" y="324.47" style="fill:#C4C4E8;" width="27.413" height="40.708"/>
			<rect x="169.129" y="321.797" style="fill:#E3E3FF;" width="27.413" height="40.708"/>
			<path style="fill:#C4C4E8;" d="M192.494,328.672h-19.181c-1.287,0-1.105,1.992,0.174,1.992h19.181
				C193.955,330.664,193.773,328.672,192.494,328.672z"/>
			<path style="fill:#C4C4E8;" d="M192.494,333.988h-19.181c-1.287,0-1.105,1.992,0.174,1.992h19.181
				C193.955,335.981,193.773,333.988,192.494,333.988z"/>
			<path style="fill:#C4C4E8;" d="M192.494,339.299h-19.181c-1.287,0-1.105,1.992,0.174,1.992h19.181
				C193.955,341.292,193.773,339.299,192.494,339.299z"/>
			<path style="fill:#C4C4E8;" d="M192.494,344.616h-19.181c-1.287,0-1.105,1.992,0.174,1.992h19.181
				C193.955,346.608,193.773,344.616,192.494,344.616z"/>
			<path style="fill:#C4C4E8;" d="M192.649,349.191h-19.181c-1.287,0-1.105,1.992,0.174,1.992h19.181
				C194.11,351.184,193.929,349.191,192.649,349.191z"/>
			<path style="fill:#C4C4E8;" d="M193.379,354.508h-19.181c-1.287,0-1.105,1.992,0.174,1.992h19.181
				C194.84,356.5,194.658,354.508,193.379,354.508z"/>
		</g>
		<g>
			<rect x="205.949" y="326.63" style="fill:#D5D4E8;" width="27.413" height="40.708"/>
			<rect x="208.44" y="324.47" style="fill:#C4C4E8;" width="27.413" height="40.708"/>
			<rect x="211.627" y="321.797" style="fill:#E3E3FF;" width="27.413" height="40.708"/>
			<path style="fill:#C4C4E8;" d="M234.992,328.672H215.81c-1.287,0-1.105,1.992,0.174,1.992h19.181
				C236.453,330.664,236.271,328.672,234.992,328.672z"/>
			<path style="fill:#C4C4E8;" d="M234.992,333.988H215.81c-1.287,0-1.105,1.992,0.174,1.992h19.181
				C236.453,335.981,236.271,333.988,234.992,333.988z"/>
			<path style="fill:#C4C4E8;" d="M234.992,339.299H215.81c-1.287,0-1.105,1.992,0.174,1.992h19.181
				C236.453,341.292,236.271,339.299,234.992,339.299z"/>
			<path style="fill:#C4C4E8;" d="M234.992,344.616H215.81c-1.287,0-1.105,1.992,0.174,1.992h19.181
				C236.453,346.608,236.271,344.616,234.992,344.616z"/>
			<path style="fill:#C4C4E8;" d="M235.147,349.191h-19.181c-1.287,0-1.105,1.992,0.174,1.992h19.181
				C236.608,351.184,236.426,349.191,235.147,349.191z"/>
			<path style="fill:#C4C4E8;" d="M235.877,354.508h-19.181c-1.287,0-1.105,1.992,0.174,1.992h19.181
				C237.338,356.5,237.156,354.508,235.877,354.508z"/>
		</g>
		<g>
			<rect x="163.103" y="279.245" style="fill:#D5D4E8;" width="27.413" height="40.708"/>
			<rect x="165.594" y="277.085" style="fill:#C4C4E8;" width="27.413" height="40.708"/>
			<rect x="168.781" y="274.412" style="fill:#E3E3FF;" width="27.413" height="40.708"/>
			<path style="fill:#C4C4E8;" d="M192.146,281.287h-19.181c-1.287,0-1.105,1.992,0.174,1.992h19.181
				C193.607,283.279,193.426,281.287,192.146,281.287z"/>
			<path style="fill:#C4C4E8;" d="M192.146,286.603h-19.181c-1.287,0-1.105,1.992,0.174,1.992h19.181
				C193.607,288.596,193.426,286.603,192.146,286.603z"/>
			<path style="fill:#C4C4E8;" d="M192.146,291.914h-19.181c-1.287,0-1.105,1.992,0.174,1.992h19.181
				C193.607,293.907,193.426,291.914,192.146,291.914z"/>
			<path style="fill:#C4C4E8;" d="M192.146,297.231h-19.181c-1.287,0-1.105,1.992,0.174,1.992h19.181
				C193.607,299.223,193.426,297.231,192.146,297.231z"/>
			<path style="fill:#C4C4E8;" d="M192.301,301.806H173.12c-1.287,0-1.105,1.992,0.174,1.992h19.181
				C193.763,303.799,193.581,301.806,192.301,301.806z"/>
			<path style="fill:#C4C4E8;" d="M193.031,307.123H173.85c-1.287,0-1.105,1.992,0.174,1.992h19.181
				C194.492,309.115,194.31,307.123,193.031,307.123z"/>
		</g>
		<g>
			<g>
				<g>
					<path style="fill:#E5E5E5;" d="M236.794,142.282v52.439l-8.65-4.533l-6.055-3.175v-44.731
						c0-15.034-12.231-27.274-27.274-27.274c-1.471,0-2.915,0.121-4.316,0.337c-12.993,2.085-22.958,13.373-22.958,26.937v42.621
						l-8.65,4.533l-6.055,3.175v-50.328c0-21.686,16.531-39.584,37.655-41.755c1.419-0.147,2.863-0.225,4.325-0.225
						C217.962,100.302,236.794,119.134,236.794,142.282z"/>
				</g>
				<g>
					<path style="fill:#CECECE;" d="M152.835,142.282v50.328l6.055-3.175v4.118l-14.705,7.707v-58.978
						c0-23.148,18.832-41.98,41.98-41.98c1.462,0,2.906,0.078,4.325,0.225C169.365,102.698,152.835,120.596,152.835,142.282z"/>
					<path style="fill:#CECECE;" d="M228.144,190.188v4.533l-14.705-7.707v-44.731c0-13.564-9.956-24.852-22.94-26.937
						c1.401-0.216,2.846-0.337,4.316-0.337c15.043,0,27.274,12.24,27.274,27.274v44.731L228.144,190.188z"/>
				</g>
			</g>
			<g>
				<path style="fill:#57D3D3;" d="M242.155,180.979v38.43c0,19.45-17.97,37.18-44.71,44.11c-0.47,0.12-0.95,0.24-1.43,0.36
					c-0.48-0.12-0.95-0.23-1.41-0.35c-0.54-0.14-1.07-0.28-1.6-0.44c-25.86-7.21-43.13-24.62-43.13-43.68v-38.43l43.14-22.62l3-1.57
					L242.155,180.979z"/>
				<path style="fill:#0DBAAD;" d="M196.015,156.789l-38.03,29.82v38.36c0,0,0.13,19.43,36.62,38.56c-0.54-0.14-1.07-0.28-1.6-0.44
					c-25.86-7.21-43.13-24.62-43.13-43.68v-38.43l43.14-22.62L196.015,156.789z"/>
				<path style="fill:#211E5E;" d="M193.165,176.759c6.96,0.8,12.38,6.72,12.38,13.9c0,4.15-1.81,7.89-4.69,10.45
					c-0.66,0.59-1.38,1.12-2.15,1.58l9.74,40.63h-26.19l8.97-39.85c-5.24-2.02-8.97-7.1-8.97-13.06
					C182.255,183.739,186.925,178.169,193.165,176.759z"/>
				<path style="fill:#433C85;" d="M200.855,201.109c2.88-2.56,4.69-6.3,4.69-10.45c0-7.18-5.42-13.1-12.38-13.9
					c0.99-0.22,2.03-0.34,3.09-0.34c7.72,0,13.99,6.26,13.99,13.99c0,5.11-2.74,9.59-6.84,12.03L200.855,201.109z"/>
				<path style="fill:#433C85;" d="M203.405,202.439l9.8,40.88h-4.76l-9.74-40.63c0.77-0.46,1.49-0.99,2.15-1.58L203.405,202.439z"
					/>
				<path style="fill:#FFD05A;" d="M243.878,171.722l-17-8.91l-30.86-16.18l-3,1.57l-29.2,15.31l-17,8.92l-5.94,3.11v43.87
					c0,23.62,20.68,44.85,51.48,52.83c0.22,0.06,0.44,0.11,0.66,0.17c0.63,0.16,1.27,0.32,1.91,0.48l1.08,0.27l1.08-0.27
					c0.88-0.22,1.75-0.43,2.6-0.65c30.79-7.98,51.47-29.21,51.47-52.83v-43.87L243.878,171.722z M242.158,219.412
					c0,19.45-17.97,37.18-44.71,44.11c-0.47,0.12-0.95,0.24-1.43,0.36c-0.48-0.12-0.95-0.23-1.41-0.35
					c-0.54-0.14-1.07-0.28-1.6-0.44c-25.86-7.21-43.13-24.62-43.13-43.68v-38.43l13.94-7.31l29.2-15.31l3-1.57l30.86,16.18
					l15.28,8.01V219.412z"/>
				<path style="fill:#EEBD2C;" d="M194.928,272.892l1.08,0.27c-0.63,0.16-6,0-6,0l-1.08-0.27c-0.87-0.22-1.73-0.43-2.57-0.65
					c-30.8-7.98-51.48-29.21-51.48-52.83v-43.87l11.94-6.26l17-8.91l26.2-13.74h6l-3,1.57l-29.2,15.31l-17,8.92l-5.94,3.11v43.87
					c0,23.62,20.68,44.85,51.48,52.83c0.22,0.06,0.44,0.11,0.66,0.17C193.648,272.572,194.288,272.732,194.928,272.892z"/>
			</g>
		</g>
		<g>
			<defs>
				<rect id="SVGID_1_" x="229.763" y="281.903" width="97.799" height="94.278"/>
			</defs>
			<clipPath id="SVGID_00000177463917611032883130000012996614817290478211_">
				<use xlink:href="#SVGID_1_"  style="overflow:visible;"/>
			</clipPath>
			<g style="clip-path:url(#SVGID_00000177463917611032883130000012996614817290478211_);">
				<path style="fill:#57D3D3;" d="M318.058,341.336c-1.009,4.854,1.909,9.237,1.67,14.042c-0.211,4.165-3.224,7.28-6.81,9.039
					c-4.438,2.175-9.516,2.086-14.24,3.204c-4.329,1.029-8.276,3.17-9.959,7.498c-0.852,2.188-1.173,4.533-1.711,6.81
					c-0.491,2.1-1.207,4.145-2.215,6.053c-1.936,3.647-4.847,6.789-8.575,8.63c-3.654,1.8-8.057,2.127-11.916,0.825
					c-3.708-1.254-6.633-4.097-7.846-7.839c-0.852-2.631-0.845-5.508,0.157-8.044c1.479-8.057,11.077-10.995,16.953-15.522
					c1.731-1.343,3.327-2.945,4.349-4.901c1.172-2.25,1.5-4.792,1.479-7.301c-0.027-4.39-0.927-8.766-0.116-13.143
					c0.716-3.811,2.734-7.239,6.496-8.664c2.154-0.818,4.485-0.968,6.714-1.534c2.175-0.552,4.097-1.622,5.808-3.068
					c6.49-5.487,10-16.115,19.707-16.749c3.961-0.259,7.669,1.704,9.025,5.556c1.466,4.131,0.102,8.487-1.99,12.127
					C322.605,332.584,319.08,336.435,318.058,341.336z"/>
				<path style="fill:#544FC9;" d="M322.88,316.371c-6.365,1.21-11.93,5.685-14.358,11.724c-0.201,0.501-0.367,1.009-0.518,1.52
					c-0.339-1.138-0.679-2.277-1.018-3.415c-0.141-0.472-0.733-0.7-1.172-0.536c-0.487,0.181-0.678,0.699-0.536,1.172l1.961,6.582
					c-0.199,1.576-0.298,3.172-0.413,4.763c-0.247,3.42-0.593,7.128-2.873,9.87c-1.451,1.744-3.439,2.812-5.518,3.651
					c-0.146-0.216-0.143-0.592-0.159-0.828c-0.031-0.453-0.051-0.908-0.076-1.361l-0.169-3.035
					c-0.108-1.939-0.215-3.878-0.323-5.816c-0.065-1.172-1.881-1.012-1.816,0.159c0.122,2.192,0.243,4.383,0.365,6.575
					c0.061,1.096,0.12,2.192,0.183,3.288c0.032,0.556,0.079,1.148,0.29,1.664c-0.303,0.108-0.607,0.214-0.908,0.319
					c-3.032,1.05-6.192,2.049-8.746,4.068c-1.922,1.52-3.356,3.385-4.483,5.441c-0.099-0.496-0.178-0.998-0.275-1.484
					c-0.189-0.944-0.377-1.888-0.566-2.832l-1.158-5.792c-0.097-0.487-0.458-0.869-0.987-0.829c-0.45,0.035-0.925,0.505-0.829,0.987
					l1.287,6.435c0.223,1.116,0.446,2.231,0.669,3.346c0.17,0.852,0.286,1.758,0.727,2.522c-1.49,3.541-2.319,7.45-3.187,11.104
					c-0.92,3.871-2.02,7.906-4.382,11.166c-0.908-3.467-1.816-6.933-2.723-10.4c-0.297-1.133-2.004-0.492-1.709,0.636
					c1.002,3.827,2.004,7.654,3.006,11.481c-2.572,2.652-6.156,4.446-9.908,3.706c-1.153-0.227-1.48,1.566-0.33,1.793
					c4.542,0.896,8.551-1.14,11.532-4.303c0.016-0.003,0.034-0.001,0.05-0.005c3.438-0.846,6.877-1.693,10.315-2.539
					c0.482-0.119,0.689-0.748,0.536-1.172c-0.182-0.507-0.697-0.654-1.172-0.537l-7.864,1.936c0.945-1.362,1.73-2.825,2.316-4.297
					c2.218-5.567,2.695-11.859,4.972-17.407c1.113,0.351,2.493,0.11,3.615,0.027c2.205-0.163,4.41-0.326,6.615-0.489
					c1.17-0.087,1.012-1.903-0.159-1.816c-1.902,0.141-3.805,0.281-5.707,0.422c-0.931,0.069-1.862,0.154-2.793,0.206
					c-0.304,0.017-0.576,0.017-0.814-0.035c0.437-0.875,0.929-1.727,1.496-2.548c1.996-2.891,4.719-4.664,7.959-5.902
					c1.748-0.668,3.546-1.224,5.295-1.893c0.448,0.084,0.92,0.081,1.379,0.075c1.119-0.014,2.237-0.032,3.356-0.048l6.711-0.095
					c1.173-0.017,1.009-1.833-0.159-1.816c-1.979,0.028-3.958,0.056-5.937,0.084c-0.53,0.008-1.06,0.015-1.59,0.023
					c2.683-1.62,4.552-4.061,5.466-7.066c1.04-3.418,0.928-7.045,1.309-10.565c0.006-0.052,0.016-0.103,0.022-0.156
					c2.309-1.068,4.619-2.136,6.928-3.203c0.447-0.207,0.717-0.686,0.536-1.172c-0.161-0.435-0.723-0.744-1.172-0.536
					c-1.978,0.915-3.956,1.829-5.934,2.744c0.633-2.984,1.866-5.717,3.949-8.086c2.531-2.879,5.982-4.938,9.758-5.656
					C324.18,317.97,324.033,316.152,322.88,316.371z"/>
				<path style="fill:#544FC9;" d="M281.754,343.332c-0.75,2.14-0.716,4.322-0.259,6.517c0.811,3.92,2.768,7.71,2.474,11.8
					c-0.252,3.442-2.427,6.012-5.174,7.887c-2.665,1.82-5.74,3.088-8.166,5.256c-1.384,1.241-2.359,2.761-2.822,4.567
					c-0.545,2.168-0.545,4.444-1.172,6.592c-1.07,3.674-4.151,6.496-7.921,7.205c-3.088,0.579-6.305-0.491-8.582-2.59
					c-2.624-1.479-4.819-3.695-6.21-6.394c-1.902-3.695-2.297-8.146-1.029-12.107c1.309-4.104,4.724-7.573,4.928-12.011
					c0.184-3.981-2.045-7.635-3.32-11.268c-1.213-3.449-1.52-7.035,0.579-10.205c1.943-2.938,5.072-4.772,7.301-7.458
					c1.207-1.452,1.977-3.108,2.134-5.01c0.191-2.209-0.382-4.444-0.852-6.585c-0.886-3.995-1.445-8.023,0.907-11.643
					c2.018-3.095,5.569-5.194,9.312-5.078c3.661,0.116,7.239,2.168,9.148,5.303c1.125,1.854,1.425,3.94,1.95,6.012
					c0.484,1.929,1.316,3.524,2.849,4.826c2.624,2.229,6.196,3.436,8.166,6.387c2.536,3.804,0.818,8.453-1.2,12.052
					C283.703,339.323,282.49,341.225,281.754,343.332z"/>
				<path style="fill:#7979E2;" d="M274.431,321.234l-6.983,3.1c0.475-0.737,0.913-1.486,1.273-2.263
					c1.235-2.668,1.532-5.642,0.414-8.405c-1.103-2.727-3.328-4.962-6.127-5.913c-0.099-0.034-0.192-0.034-0.285-0.038
					c-0.085-0.025-0.168-0.054-0.269-0.054c-0.689,0-0.905,0.624-0.739,1.141c0.032,0.248,0.176,0.472,0.495,0.588
					c0.006,0.003,0.011,0.007,0.017,0.01c0.001,0,0.001,0.001,0.002,0.001c2.63,0.894,4.646,2.987,5.464,5.646
					c0.818,2.658,0.007,5.283-1.335,7.61c-0.441,0.765-0.929,1.507-1.432,2.24c-0.887-1.816-1.774-3.632-2.66-5.449
					c-0.509-1.043-2.225-0.421-1.709,0.636l3.18,6.513c-2.056,2.918-4.028,5.847-4.086,9.635c-0.037,2.409,0.627,4.651,1.471,6.852
					c-0.475-0.408-0.949-0.815-1.424-1.223c-1.551-1.331-3.101-2.663-4.652-3.994c-0.892-0.766-2.063,0.631-1.172,1.396
					c1.76,1.511,3.52,3.023,5.281,4.534c0.848,0.728,1.67,1.538,2.578,2.189c0.224,0.161,0.464,0.275,0.709,0.347
					c0.886,2.157,1.705,4.333,1.962,6.647c0.435,3.91-0.948,7.472-2.812,10.841c-2.206-3.418-4.412-6.836-6.619-10.254
					c-0.636-0.986-2.124,0.068-1.488,1.054c2.36,3.656,4.72,7.313,7.081,10.97c-1.127,1.869-2.332,3.685-3.378,5.475
					c-0.929,1.59-1.78,3.335-2.43,5.148c-0.956-1.903-1.912-3.806-2.868-5.709c-0.52-1.036-2.236-0.414-1.709,0.636
					c1.275,2.538,2.55,5.076,3.825,7.614c-0.86,3.726-0.634,7.573,1.802,10.863c0.697,0.941,2.188-0.107,1.488-1.054
					c-2.042-2.759-2.285-5.906-1.631-9.004c3.053-1.799,6.106-3.598,9.159-5.397c1.01-0.595-0.047-2.081-1.054-1.488
					c-2.458,1.448-4.916,2.897-7.374,4.345c0.766-2.149,1.852-4.214,2.953-6.036c0.945-1.563,1.964-3.149,2.925-4.772
					c3.875-2.93,7.75-5.859,11.625-8.789c0.934-0.706-0.114-2.198-1.054-1.488c-2.838,2.146-5.676,4.291-8.514,6.437
					c1.364-2.936,2.236-6.029,1.905-9.377c-0.241-2.44-1.131-4.739-2.077-7.023c0.683-0.538,1.16-1.397,1.657-2.086
					c0.682-0.947,1.365-1.894,2.048-2.841c1.397-1.939,2.795-3.879,4.193-5.818c0.683-0.947-0.709-2.126-1.396-1.172
					c-2.34,3.247-4.672,6.5-7.02,9.742c-0.048,0.067-0.134,0.212-0.232,0.36c-1.071-2.613-2.014-5.246-1.942-8.083
					c0.087-3.408,1.998-6.147,3.961-8.853c3.213-1.426,6.426-2.852,9.639-4.279C276.133,322.47,275.507,320.756,274.431,321.234z"/>
			</g>
		</g>
	</g>
	<g>
		<path style="fill:#E3E3FF;" d="M63.841,420.453H471.27c0,0-5.869,21.265-203.72,21.265S63.841,420.453,63.841,420.453z"/>
		<g>
			<g>
				<path style="fill:#FFD05A;" d="M302.019,99.235c-1.066,0-1.878,1.14-1.791,2.135c0.1,1.139,1.066,1.791,2.135,1.791
					c1.066,0,1.878-1.14,1.791-2.135C304.054,99.887,303.088,99.235,302.019,99.235z"/>
			</g>
			<g>
				<path style="fill:#FFD05A;" d="M264.902,118.57c-1.066,0-1.878,1.14-1.791,2.135c0.1,1.139,1.066,1.791,2.135,1.791
					c1.066,0,1.878-1.14,1.791-2.135C266.937,119.223,265.971,118.57,264.902,118.57z"/>
			</g>
			<g>
				<path style="fill:#FFD05A;" d="M401.422,147.582c-1.066,0-1.878,1.14-1.791,2.135c0.1,1.139,1.066,1.791,2.135,1.791
					c1.066,0,1.878-1.14,1.791-2.135C403.457,148.234,402.491,147.582,401.422,147.582z"/>
			</g>
			<g>
				<path style="fill:#FFD05A;" d="M423.206,159.85c-1.066,0-1.878,1.14-1.791,2.135c0.1,1.139,1.066,1.791,2.135,1.791
					c1.066,0,1.878-1.14,1.791-2.135C425.241,160.503,424.274,159.85,423.206,159.85z"/>
			</g>
			<g>
				<path style="fill:#FFD05A;" d="M439.42,179.132c-1.066,0-1.878,1.14-1.791,2.135c0.1,1.139,1.066,1.791,2.135,1.791
					c1.066,0,1.878-1.14,1.791-2.135C441.455,179.784,440.488,179.132,439.42,179.132z"/>
			</g>
			<g>
				<path style="fill:#FFD05A;" d="M421.014,199.29c-1.066,0-1.878,1.14-1.791,2.135c0.1,1.139,1.066,1.791,2.135,1.791
					c1.066,0,1.878-1.14,1.791-2.135C423.05,199.942,422.083,199.29,421.014,199.29z"/>
			</g>
			<g>
				<path style="fill:#FFD05A;" d="M28.368,299.843c-1.066,0-1.878,1.14-1.791,2.135c0.1,1.139,1.066,1.791,2.135,1.791
					c1.066,0,1.878-1.14,1.791-2.135C30.403,300.496,29.437,299.843,28.368,299.843z"/>
			</g>
			<g>
				<path style="fill:#FFD05A;" d="M37.78,288.725c-1.066,0-1.878,1.14-1.791,2.135c0.1,1.139,1.066,1.791,2.135,1.791
					c1.066,0,1.878-1.14,1.791-2.135C39.815,289.378,38.849,288.725,37.78,288.725z"/>
			</g>
			<g>
				<path style="fill:#FFD05A;" d="M145.972,105.569c-1.066,0-1.878,1.14-1.791,2.135c0.1,1.139,1.066,1.791,2.135,1.791
					c1.066,0,1.878-1.14,1.791-2.135C148.007,106.222,147.041,105.569,145.972,105.569z"/>
			</g>
			<g>
				<path style="fill:#FFD05A;" d="M64.95,289.466c-1.066,0-1.878,1.14-1.791,2.135c0.1,1.139,1.066,1.791,2.135,1.791
					c1.066,0,1.878-1.14,1.791-2.135C66.985,290.118,66.019,289.466,64.95,289.466z"/>
			</g>
			<g>
				<path style="fill:#FFD05A;" d="M109.719,132.09c-1.066,0-1.878,1.14-1.791,2.135c0.1,1.139,1.066,1.791,2.135,1.791
					c1.066,0,1.878-1.14,1.791-2.135C111.754,132.743,110.788,132.09,109.719,132.09z"/>
			</g>
			<g>
				<path style="fill:#FFD05A;" d="M281.46,106.927c-0.003,0-0.006,0-0.009,0c-0.376-0.003-0.729-0.185-0.949-0.49l-5.368-7.428
					c-0.299-0.413-0.299-0.971,0-1.384l5.368-7.435c0.227-0.315,0.57-0.523,0.984-0.49c0.388,0.008,0.748,0.207,0.962,0.531
					l5.204,7.888c0.274,0.416,0.259,0.959-0.039,1.358l-5.204,6.976C282.185,106.75,281.833,106.927,281.46,106.927z
					 M277.551,98.315l3.925,5.431l3.745-5.02l-3.804-5.766L277.551,98.315z"/>
			</g>
			<g>
				<path style="fill:#FFD05A;" d="M109.965,116.105c-0.003,0-0.006,0-0.009,0c-0.376-0.003-0.729-0.185-0.949-0.49l-5.368-7.428
					c-0.299-0.413-0.299-0.971,0-1.384l5.368-7.435c0.227-0.315,0.592-0.52,0.983-0.49c0.389,0.008,0.748,0.207,0.962,0.531
					l5.204,7.888c0.274,0.416,0.259,0.959-0.039,1.358l-5.204,6.976C110.69,115.929,110.339,116.105,109.965,116.105z
					 M106.056,107.494l3.925,5.431l3.745-5.02l-3.804-5.766L106.056,107.494z"/>
			</g>
			<g>
				<path style="fill:#FFD05A;" d="M398.925,208.099c-0.003,0-0.006,0-0.009,0c-0.376-0.003-0.729-0.185-0.949-0.49l-5.368-7.428
					c-0.299-0.413-0.299-0.971,0-1.385l5.368-7.436c0.227-0.315,0.567-0.504,0.984-0.49c0.388,0.008,0.748,0.207,0.962,0.531
					l5.204,7.888c0.274,0.416,0.259,0.959-0.039,1.358l-5.204,6.976C399.649,207.923,399.298,208.099,398.925,208.099z
					 M395.016,199.488l3.924,5.431l3.745-5.02l-3.804-5.766L395.016,199.488z"/>
			</g>
			<g>
				<path style="fill:#FFD05A;" d="M132.99,134.735c-0.003,0-0.006,0-0.009,0c-0.376-0.003-0.728-0.185-0.949-0.49l-5.369-7.428
					c-0.299-0.413-0.299-0.971,0-1.384l5.369-7.435c0.227-0.315,0.615-0.508,0.983-0.49c0.389,0.008,0.748,0.207,0.962,0.531
					l5.203,7.888c0.274,0.416,0.259,0.959-0.039,1.358l-5.203,6.976C133.715,134.559,133.364,134.735,132.99,134.735z
					 M129.08,126.124l3.926,5.431l3.744-5.02l-3.803-5.766L129.08,126.124z"/>
			</g>
			<g>
				<path style="fill:#FFD05A;" d="M34.912,315.452c-1.066,0-1.878,1.14-1.791,2.135c0.1,1.139,1.066,1.791,2.135,1.791
					c1.066,0,1.878-1.14,1.791-2.135C36.947,316.104,35.98,315.452,34.912,315.452z"/>
			</g>
			<g>
				<path style="fill:#FFD05A;" d="M57.831,327.572c-0.003,0-0.006,0-0.009,0c-0.376-0.003-0.729-0.185-0.949-0.49l-5.368-7.428
					c-0.299-0.413-0.299-0.971,0-1.384l5.368-7.435c0.227-0.315,0.592-0.52,0.983-0.49c0.389,0.008,0.748,0.207,0.962,0.531
					l5.204,7.888c0.274,0.416,0.259,0.959-0.039,1.358l-5.204,6.976C58.556,327.395,58.205,327.572,57.831,327.572z M53.922,318.961
					l3.925,5.431l3.745-5.02l-3.804-5.766L53.922,318.961z"/>
			</g>
			<path style="fill:#FFD05A;" d="M135.134,94.304c-3.257,0-2.796,5.042,0.441,5.042C138.832,99.347,138.371,94.304,135.134,94.304z
				"/>
			<path style="fill:#FFD05A;" d="M408.993,178.574c-3.257,0-2.796,5.042,0.441,5.042
				C412.691,183.616,412.231,178.574,408.993,178.574z"/>
			<path style="fill:#FFD05A;" d="M179.78,289.346c-3.257,0-2.796,5.042,0.441,5.042
				C183.477,294.388,183.017,289.346,179.78,289.346z"/>
			<path style="fill:#FFD05A;" d="M423.87,146.2c-3.257,0-2.796,5.042,0.441,5.042C427.567,151.242,427.107,146.2,423.87,146.2z"/>
			<path style="fill:#FFD05A;" d="M263.5,84.497c-0.157-0.417-0.406-0.769-0.746-1.056c-0.182-0.117-0.363-0.233-0.545-0.35
				c-0.413-0.194-0.847-0.271-1.303-0.233h-0.528c-0.348,0.017-0.666,0.118-0.952,0.302c-0.304,0.129-0.559,0.326-0.766,0.592
				c-0.226,0.25-0.376,0.536-0.45,0.857c-0.132,0.314-0.176,0.644-0.132,0.99c0.05,0.221,0.099,0.442,0.149,0.662
				c0.157,0.417,0.406,0.769,0.746,1.056l0.545,0.35c0.413,0.194,0.847,0.271,1.303,0.233h0.528
				c0.348-0.017,0.666-0.118,0.952-0.302c0.304-0.129,0.559-0.326,0.766-0.592c0.226-0.25,0.376-0.535,0.45-0.857
				c0.132-0.314,0.176-0.644,0.132-0.99C263.599,84.938,263.549,84.717,263.5,84.497z"/>
			<g>
				<path style="fill:#FFD05A;" d="M259.492,212.687c-1.066,0-1.878,1.14-1.791,2.135c0.1,1.139,1.066,1.791,2.135,1.791
					c1.066,0,1.878-1.14,1.791-2.135C261.527,213.34,260.56,212.687,259.492,212.687z"/>
			</g>
			<g>
				<path style="fill:#FFD05A;" d="M264.133,241.221c-1.066,0-1.878,1.14-1.791,2.135c0.1,1.139,1.066,1.791,2.135,1.791
					c1.066,0,1.878-1.14,1.791-2.135C266.168,241.873,265.202,241.221,264.133,241.221z"/>
			</g>
			<g>
				<path style="fill:#FFD05A;" d="M259.603,272.684c-0.003,0-0.006,0-0.009,0c-0.376-0.003-0.729-0.185-0.949-0.49l-5.368-7.428
					c-0.299-0.413-0.299-0.971,0-1.384l5.368-7.436c0.228-0.316,0.587-0.521,0.983-0.49c0.389,0.008,0.748,0.207,0.962,0.531
					l5.204,7.888c0.274,0.416,0.259,0.959-0.039,1.358l-5.204,6.976C260.327,272.508,259.976,272.684,259.603,272.684z
					 M255.694,264.073l3.925,5.431l3.745-5.02l-3.804-5.766L255.694,264.073z"/>
			</g>
			<path style="fill:#FFD05A;" d="M390.217,91.994c-3.257,0-2.796,5.042,0.441,5.042C393.915,97.036,393.455,91.994,390.217,91.994z
				"/>
			<path style="fill:#FFD05A;" d="M283.646,235.771c-0.157-0.417-0.406-0.768-0.746-1.056c-0.182-0.116-0.363-0.233-0.545-0.35
				c-0.413-0.194-0.847-0.271-1.303-0.233h-0.528c-0.348,0.017-0.666,0.118-0.952,0.302c-0.304,0.129-0.559,0.326-0.766,0.592
				c-0.226,0.25-0.376,0.536-0.45,0.857c-0.132,0.314-0.176,0.644-0.132,0.99c0.05,0.221,0.099,0.442,0.149,0.662
				c0.157,0.417,0.406,0.769,0.746,1.056c0.182,0.117,0.363,0.233,0.545,0.35c0.413,0.194,0.847,0.271,1.303,0.233h0.528
				c0.348-0.017,0.666-0.118,0.952-0.302c0.304-0.129,0.559-0.326,0.766-0.592c0.226-0.25,0.376-0.536,0.45-0.857
				c0.132-0.314,0.176-0.644,0.132-0.99C283.745,236.212,283.696,235.992,283.646,235.771z"/>
		</g>
	</g>
	<g>
		<g>
			<path style="fill:#F973B7;" d="M391.008,225.832c-0.07,0.06-0.11,0.1-0.11,0.1c-2.44,0.74-4.8,1.39-7.08,1.95
				c-32.85,8.09-48.69-1.74-48.69-1.74c-0.01-0.01-0.01-0.03-0.01-0.04v-0.01c-1.1-2.61,0.58-4.34,1.73-5.16
				c0.52-0.38,0.93-0.57,0.93-0.57c0.02-0.42,0.05-0.87,0.06-1.32c0.03-0.4,0.05-0.8,0.08-1.21c-3.21,0.53-6.45,0.79-9.7,0.79
				c-4.28,0-8.57-0.45-12.78-1.39l0.18-0.83l2.19-9.85c0.09,0.02,0.16,0.03,0.25,0.05c6.87,1.5,14.14,1.37,21.07-0.2
				c0.25-1.88,0.52-3.76,0.8-5.61c1.53-10.28,3.3-19.4,3.3-19.4s-0.03-0.01-0.1-0.03c-1.05-0.24-9.42-2.44-9.86-9.58
				c-8.35,6.24-17.54,11.29-27.24,15.03c-12.8,4.93-26.5,7.57-40.33,7.57c-0.81,0-1.62-0.01-2.43-0.03l0.25-10.93
				c29.72,0.67,58.95-12.22,78.55-34.55c-0.53-0.97-1.07-2.67,0.54-4c2.42-1.99,19.2-1.21,19.2-1.21c-0.24,1.98-0.62,3.94-1.17,5.85
				c4.24,0.74,8.83-1.14,11.34-4.64h0.03c0.05-0.45,0.09-0.91,0.11-1.36h0.05c0,0,11.02,0.23,13.57,2.18
				c2.55,1.95,0.68,4.67,0.68,4.67s1.9,5.19,2.03,8.9c0.1,2.64-0.49,6.68-1.44,11.25c-0.08,0.43-0.18,0.86-0.27,1.29
				c-2.81,13.12-8.11,29.7-8.11,29.7l11.3,19.18C393.138,223.472,391.478,225.402,391.008,225.832z"/>
			<path style="fill:#E8428D;" d="M346.311,150.573c-0.538-0.074-1.062,0.253-1.165,0.803c-0.19,1.018-0.379,2.037-0.569,3.055
				c-0.096,0.514,0.269,1.091,0.803,1.165c0.538,0.074,1.062-0.253,1.165-0.803c0.19-1.018,0.379-2.037,0.569-3.055
				C347.209,151.224,346.845,150.647,346.311,150.573z"/>
			<path style="fill:#E8428D;" d="M354.428,151.113c-0.139-0.196-0.393-0.372-0.635-0.406c-0.26-0.036-0.545,0.002-0.759,0.168
				c-0.196,0.152-0.38,0.379-0.406,0.635c-0.093,0.927-0.186,1.853-0.28,2.78c-0.027,0.271,0.005,0.53,0.168,0.759
				c0.139,0.196,0.393,0.372,0.635,0.406c0.26,0.036,0.545-0.002,0.759-0.168c0.196-0.152,0.38-0.379,0.406-0.635
				c0.093-0.927,0.186-1.853,0.28-2.78C354.623,151.601,354.59,151.342,354.428,151.113z"/>
			<path style="fill:#E8428D;" d="M362.634,151.808c-0.139-0.196-0.393-0.372-0.635-0.406c-0.26-0.036-0.545,0.002-0.759,0.168
				c-0.192,0.149-0.388,0.381-0.406,0.635c-0.061,0.879-0.121,1.759-0.182,2.638c-0.019,0.277,0.001,0.523,0.168,0.759
				c0.139,0.196,0.393,0.372,0.635,0.406c0.26,0.036,0.545-0.002,0.759-0.168c0.192-0.149,0.388-0.381,0.406-0.635
				c0.061-0.879,0.121-1.759,0.182-2.638C362.82,152.29,362.801,152.044,362.634,151.808z"/>
			<path style="fill:#E8428D;" d="M370.391,151.807c-0.139-0.196-0.393-0.372-0.635-0.406c-0.26-0.036-0.545,0.002-0.759,0.168
				c-0.19,0.147-0.393,0.383-0.406,0.635c-0.044,0.88-0.089,1.761-0.133,2.641c-0.014,0.281-0.002,0.519,0.168,0.759
				c0.139,0.196,0.393,0.372,0.635,0.406c0.26,0.036,0.545-0.002,0.759-0.168c0.19-0.148,0.393-0.383,0.406-0.635
				c0.044-0.88,0.089-1.761,0.133-2.641C370.572,152.285,370.56,152.047,370.391,151.807z"/>
			<path style="fill:#E8428D;" d="M378.785,152.309c-0.018-0.132-0.068-0.252-0.151-0.36c-0.139-0.196-0.393-0.372-0.635-0.406
				c-0.26-0.036-0.545,0.002-0.759,0.168c-0.192,0.149-0.388,0.382-0.406,0.635c-0.047,0.695-0.095,1.39-0.142,2.085
				c-0.03,0.136-0.024,0.269,0.017,0.399c0.018,0.132,0.068,0.252,0.151,0.36c0.139,0.196,0.393,0.372,0.635,0.406
				c0.26,0.036,0.545-0.002,0.759-0.168c0.192-0.149,0.388-0.382,0.406-0.635c0.047-0.695,0.095-1.39,0.142-2.085
				C378.831,152.571,378.826,152.438,378.785,152.309z"/>
			<path style="fill:#E8428D;" d="M385.583,152.316c-0.188-0.158-0.483-0.263-0.73-0.23c-0.257,0.034-0.516,0.142-0.679,0.353
				c-0.171,0.222-0.226,0.451-0.23,0.73c-0.012,0.926-0.025,1.853-0.037,2.779c-0.003,0.241,0.176,0.53,0.353,0.679
				c0.188,0.158,0.483,0.263,0.73,0.23c0.257-0.034,0.516-0.142,0.679-0.353c0.171-0.222,0.226-0.451,0.23-0.73
				c0.012-0.926,0.025-1.853,0.037-2.779C385.94,152.754,385.761,152.465,385.583,152.316z"/>
			<path style="fill:#E8428D;" d="M349.194,157.399c-0.524-0.072-1.079,0.25-1.165,0.803l-0.491,3.185
				c-0.08,0.516,0.258,1.09,0.803,1.165c0.524,0.072,1.079-0.25,1.165-0.803l0.491-3.185
				C350.077,158.048,349.74,157.474,349.194,157.399z"/>
			<path style="fill:#E8428D;" d="M358.482,159.258c-0.018-0.132-0.068-0.252-0.151-0.36c-0.139-0.196-0.393-0.372-0.635-0.406
				c-0.26-0.036-0.545,0.002-0.759,0.168c-0.191,0.148-0.391,0.382-0.406,0.635c-0.046,0.788-0.093,1.575-0.139,2.363
				c-0.03,0.136-0.024,0.269,0.017,0.399c0.018,0.132,0.068,0.252,0.151,0.36c0.139,0.196,0.393,0.372,0.635,0.406
				c0.26,0.036,0.545-0.002,0.759-0.168c0.191-0.148,0.391-0.382,0.406-0.635c0.046-0.788,0.093-1.575,0.139-2.363
				C358.529,159.52,358.523,159.387,358.482,159.258z"/>
			<path style="fill:#E8428D;" d="M367.617,160.367c-0.018-0.132-0.068-0.252-0.151-0.36c-0.139-0.196-0.393-0.372-0.635-0.406
				c-0.26-0.036-0.545,0.002-0.759,0.168c-0.192,0.149-0.39,0.382-0.406,0.635c-0.047,0.741-0.094,1.483-0.141,2.224
				c-0.03,0.136-0.024,0.269,0.017,0.399c0.018,0.132,0.068,0.252,0.151,0.36c0.139,0.196,0.393,0.372,0.635,0.406
				c0.26,0.036,0.545-0.002,0.759-0.168c0.192-0.149,0.39-0.382,0.406-0.635c0.047-0.741,0.094-1.483,0.141-2.224
				C367.664,160.63,367.658,160.497,367.617,160.367z"/>
			<path style="fill:#E8428D;" d="M374.845,159.313c-0.139-0.196-0.393-0.372-0.635-0.406c-0.26-0.036-0.545,0.002-0.759,0.168
				c-0.19,0.148-0.392,0.383-0.406,0.635l-0.154,2.918c-0.015,0.28-0.002,0.52,0.168,0.759c0.139,0.196,0.393,0.372,0.635,0.406
				c0.26,0.036,0.545-0.002,0.759-0.168c0.19-0.148,0.392-0.383,0.406-0.635l0.154-2.918
				C375.027,159.792,375.014,159.552,374.845,159.313z"/>
			<path style="fill:#E8428D;" d="M383.641,159.675c-0.018-0.132-0.068-0.252-0.151-0.36c-0.139-0.196-0.393-0.372-0.635-0.406
				c-0.26-0.036-0.545,0.002-0.759,0.168c-0.191,0.148-0.391,0.382-0.406,0.635c-0.047,0.788-0.093,1.575-0.14,2.363
				c-0.03,0.136-0.024,0.269,0.017,0.399c0.018,0.132,0.068,0.252,0.151,0.36c0.139,0.196,0.393,0.372,0.635,0.406
				c0.26,0.036,0.545-0.002,0.759-0.168c0.191-0.148,0.391-0.382,0.406-0.635c0.047-0.788,0.093-1.575,0.14-2.363
				C383.688,159.937,383.683,159.805,383.641,159.675z"/>
			<path style="fill:#E8428D;" d="M341.547,163.771c-0.557-0.077-1.039,0.257-1.165,0.803c-0.234,1.019-0.468,2.037-0.703,3.056
				c-0.117,0.51,0.284,1.093,0.803,1.165c0.557,0.077,1.039-0.257,1.165-0.803c0.234-1.019,0.468-2.037,0.703-3.056
				C342.468,164.425,342.066,163.842,341.547,163.771z"/>
			<path style="fill:#E8428D;" d="M352.759,166.403c-0.139-0.196-0.393-0.372-0.635-0.406c-0.26-0.036-0.545,0.002-0.759,0.168
				c-0.19,0.147-0.394,0.383-0.406,0.635c-0.046,0.973-0.093,1.946-0.139,2.919c-0.013,0.281-0.003,0.519,0.168,0.759
				c0.139,0.196,0.393,0.372,0.635,0.406c0.26,0.036,0.545-0.002,0.759-0.168c0.19-0.147,0.394-0.383,0.406-0.635
				c0.046-0.973,0.093-1.946,0.139-2.919C352.94,166.88,352.929,166.643,352.759,166.403z"/>
			<path style="fill:#E8428D;" d="M363.193,166.959c-0.139-0.196-0.393-0.372-0.635-0.406c-0.26-0.036-0.545,0.002-0.759,0.168
				c-0.191,0.148-0.392,0.383-0.406,0.635c-0.047,0.834-0.094,1.668-0.141,2.502c-0.016,0.28-0.001,0.521,0.168,0.759
				c0.139,0.196,0.393,0.372,0.635,0.406c0.26,0.036,0.545-0.002,0.759-0.168c0.191-0.148,0.391-0.383,0.406-0.635
				c0.047-0.834,0.094-1.668,0.141-2.502C363.376,167.438,363.362,167.197,363.193,166.959z"/>
			<path style="fill:#E8428D;" d="M372.232,167.098c-0.139-0.196-0.393-0.372-0.635-0.406c-0.26-0.036-0.545,0.002-0.759,0.168
				c-0.19,0.147-0.394,0.384-0.406,0.635c-0.045,0.973-0.09,1.946-0.135,2.919c-0.013,0.282-0.003,0.518,0.168,0.759
				c0.139,0.196,0.393,0.372,0.635,0.406c0.26,0.036,0.545-0.002,0.759-0.168c0.19-0.147,0.394-0.384,0.406-0.635
				c0.045-0.973,0.09-1.946,0.135-2.919C372.413,167.576,372.402,167.339,372.232,167.098z"/>
			<path style="fill:#E8428D;" d="M344.615,171.974c-0.57-0.078-1.023,0.26-1.165,0.803c-0.278,1.066-0.556,2.131-0.834,3.197
				c-0.132,0.507,0.295,1.095,0.803,1.165c0.57,0.078,1.023-0.26,1.165-0.803c0.278-1.066,0.556-2.131,0.834-3.197
				C345.551,172.631,345.123,172.043,344.615,171.974z"/>
			<path style="fill:#E8428D;" d="M357.946,171.496c-0.188-0.158-0.483-0.263-0.73-0.23c-0.257,0.034-0.516,0.142-0.679,0.353
				c-0.17,0.222-0.228,0.451-0.23,0.73c-0.008,0.88-0.017,1.76-0.025,2.641c-0.002,0.242,0.175,0.529,0.353,0.679
				c0.188,0.158,0.483,0.263,0.73,0.23c0.257-0.034,0.516-0.142,0.679-0.353c0.17-0.222,0.227-0.451,0.23-0.73
				c0.008-0.88,0.017-1.76,0.025-2.641C358.302,171.933,358.124,171.645,357.946,171.496z"/>
			<path style="fill:#E8428D;" d="M369.042,173.077c-0.139-0.196-0.393-0.372-0.635-0.406c-0.26-0.036-0.545,0.002-0.759,0.168
				c-0.2,0.155-0.373,0.377-0.406,0.635c-0.095,0.741-0.19,1.482-0.284,2.223c-0.034,0.266,0.009,0.536,0.168,0.759
				c0.139,0.196,0.393,0.372,0.635,0.406c0.26,0.036,0.545-0.002,0.759-0.168c0.2-0.155,0.373-0.377,0.406-0.635l0.285-2.223
				C369.243,173.57,369.2,173.3,369.042,173.077z"/>
			<path style="fill:#E8428D;" d="M379.991,168.763c-0.139-0.196-0.393-0.372-0.635-0.406c-0.579-0.08-1.013,0.263-1.165,0.803
				c-0.326,1.158-0.652,2.316-0.978,3.473c-0.066,0.236,0.031,0.566,0.168,0.759c0.139,0.196,0.393,0.372,0.635,0.406
				c0.579,0.08,1.012-0.263,1.165-0.803c0.326-1.158,0.652-2.316,0.978-3.473C380.225,169.286,380.128,168.956,379.991,168.763z"/>
			<path style="fill:#E8428D;" d="M383.549,172.115c-0.54-0.074-1.06,0.253-1.165,0.803c-0.184,0.973-0.369,1.946-0.553,2.919
				c-0.097,0.514,0.27,1.091,0.803,1.165c0.54,0.074,1.06-0.253,1.165-0.803c0.184-0.973,0.369-1.946,0.553-2.919
				C384.45,172.766,384.082,172.189,383.549,172.115z"/>
			<path style="fill:#E8428D;" d="M379.553,179.275c-0.084-0.226-0.284-0.46-0.51-0.555c-0.498-0.21-1.094-0.029-1.332,0.477
				c-0.37,0.788-0.74,1.576-1.109,2.364c-0.11,0.235-0.124,0.532-0.033,0.776c0.084,0.225,0.284,0.46,0.51,0.555
				c0.498,0.21,1.094,0.029,1.332-0.477c0.37-0.788,0.74-1.576,1.109-2.364C379.631,179.816,379.644,179.519,379.553,179.275z"/>
			<path style="fill:#E8428D;" d="M373.247,183.189c-0.518-0.218-1.071-0.018-1.332,0.477c-0.512,0.972-1.025,1.943-1.537,2.915
				c-0.244,0.464-0.006,1.128,0.477,1.332c0.518,0.218,1.071,0.018,1.332-0.477c0.512-0.972,1.024-1.943,1.537-2.915
				C373.968,184.057,373.73,183.392,373.247,183.189z"/>
			<path style="fill:#E8428D;" d="M377.366,188.067c-0.205-0.158-0.466-0.265-0.73-0.23c-0.251,0.033-0.527,0.139-0.679,0.353
				c-0.52,0.734-1.041,1.467-1.561,2.201c-0.156,0.22-0.254,0.453-0.23,0.73c0.021,0.244,0.155,0.527,0.353,0.679
				c0.205,0.158,0.466,0.265,0.73,0.23c0.251-0.033,0.527-0.139,0.679-0.353c0.52-0.734,1.041-1.467,1.561-2.201
				c0.156-0.22,0.254-0.453,0.23-0.73C377.698,188.501,377.564,188.219,377.366,188.067z"/>
			<path style="fill:#E8428D;" d="M370.634,193.304c-0.205-0.158-0.466-0.265-0.73-0.23c-0.26,0.035-0.51,0.144-0.679,0.353
				c-0.601,0.743-1.201,1.485-1.802,2.228c-0.163,0.202-0.253,0.47-0.23,0.73c0.021,0.244,0.155,0.527,0.353,0.679
				c0.205,0.158,0.466,0.265,0.73,0.23c0.26-0.035,0.51-0.144,0.679-0.353c0.601-0.743,1.201-1.485,1.802-2.228
				c0.163-0.202,0.253-0.47,0.23-0.73C370.966,193.738,370.832,193.456,370.634,193.304z"/>
			<path style="fill:#E8428D;" d="M363.555,196.394c-0.156-0.201-0.376-0.37-0.635-0.406c-0.249-0.034-0.562-0.008-0.759,0.168
				c-0.807,0.72-1.613,1.44-2.419,2.161c-0.202,0.18-0.355,0.359-0.406,0.635c-0.045,0.244,0.013,0.559,0.168,0.759
				c0.156,0.201,0.376,0.37,0.635,0.406c0.249,0.034,0.562,0.008,0.759-0.168c0.807-0.72,1.613-1.44,2.419-2.161
				c0.202-0.18,0.355-0.359,0.406-0.635C363.768,196.909,363.71,196.594,363.555,196.394z"/>
			<path style="fill:#E8428D;" d="M364.08,203.238c-0.018-0.132-0.068-0.252-0.151-0.36c-0.156-0.201-0.376-0.37-0.635-0.406
				c-0.089-0.004-0.179-0.008-0.268-0.012c-0.18,0.016-0.343,0.076-0.491,0.18c-0.51,0.462-1.021,0.925-1.532,1.387
				c-0.111,0.073-0.196,0.166-0.257,0.281c-0.08,0.104-0.129,0.222-0.149,0.354c-0.03,0.136-0.024,0.269,0.017,0.399
				c0.018,0.132,0.068,0.252,0.151,0.36c0.156,0.201,0.376,0.37,0.635,0.406c0.089,0.004,0.179,0.008,0.268,0.012
				c0.18-0.016,0.343-0.076,0.491-0.18c0.51-0.462,1.021-0.925,1.532-1.387c0.111-0.073,0.196-0.166,0.257-0.281
				c0.08-0.104,0.129-0.222,0.149-0.354C364.126,203.501,364.121,203.368,364.08,203.238z"/>
			<path style="fill:#E8428D;" d="M357.644,204.102c-0.156-0.201-0.376-0.37-0.635-0.406c-0.267-0.037-0.535,0.009-0.759,0.168
				c-0.65,0.461-1.3,0.922-1.95,1.384c-0.205,0.146-0.36,0.388-0.406,0.635c-0.045,0.244,0.013,0.559,0.168,0.759
				c0.156,0.201,0.376,0.37,0.635,0.406c0.267,0.037,0.535-0.009,0.759-0.168c0.65-0.461,1.3-0.922,1.95-1.384
				c0.205-0.146,0.36-0.388,0.406-0.635C357.856,204.616,357.798,204.301,357.644,204.102z"/>
			<path style="fill:#E8428D;" d="M351.34,205.117c-0.099-0.234-0.269-0.454-0.51-0.555c-0.23-0.097-0.544-0.155-0.776-0.033
				l-2.37,1.238c-0.127,0.042-0.235,0.111-0.323,0.208c-0.102,0.08-0.18,0.18-0.232,0.302c-0.106,0.224-0.132,0.544-0.033,0.776
				c0.099,0.234,0.269,0.454,0.51,0.555c0.23,0.097,0.544,0.155,0.776,0.033l2.37-1.238c0.127-0.042,0.235-0.111,0.323-0.208
				c0.102-0.08,0.18-0.18,0.232-0.302C351.413,205.669,351.439,205.35,351.34,205.117z"/>
			<path style="fill:#E8428D;" d="M351.377,210.193c-0.099-0.234-0.269-0.454-0.51-0.555c-0.231-0.097-0.542-0.153-0.776-0.033
				c-1.199,0.613-2.398,1.226-3.598,1.839c-0.241,0.123-0.435,0.255-0.555,0.51c-0.106,0.224-0.132,0.544-0.033,0.776
				c0.099,0.234,0.269,0.454,0.51,0.555c0.231,0.097,0.542,0.153,0.776,0.033c1.199-0.613,2.398-1.226,3.598-1.839
				c0.241-0.123,0.435-0.255,0.555-0.51C351.45,210.745,351.475,210.425,351.377,210.193z"/>
			<path style="fill:#E8428D;" d="M344.816,210.137c-0.099-0.234-0.269-0.454-0.51-0.555c-0.25-0.105-0.517-0.126-0.776-0.033
				c-0.649,0.232-1.297,0.463-1.946,0.695c-0.235,0.084-0.449,0.286-0.555,0.51c-0.106,0.224-0.132,0.544-0.033,0.776
				c0.099,0.234,0.269,0.454,0.51,0.555c0.25,0.105,0.517,0.126,0.776,0.033c0.649-0.232,1.297-0.463,1.946-0.695
				c0.235-0.084,0.449-0.286,0.555-0.51C344.889,210.689,344.914,210.37,344.816,210.137z"/>
			<path style="fill:#E8428D;" d="M336.845,209.12c-0.88,0.057-1.759,0.113-2.639,0.169c-0.522,0.034-0.979,0.556-0.909,1.083
				c0.073,0.548,0.524,0.945,1.083,0.909c0.88-0.057,1.759-0.113,2.639-0.169c0.522-0.034,0.979-0.556,0.909-1.083
				C337.855,209.481,337.404,209.084,336.845,209.12z"/>
			<path style="fill:#E8428D;" d="M337.187,214.517c-0.149-0.192-0.382-0.389-0.635-0.406c-0.649-0.043-1.298-0.086-1.947-0.129
				c-0.136-0.03-0.269-0.024-0.399,0.017c-0.132,0.018-0.252,0.068-0.36,0.151c-0.196,0.139-0.372,0.393-0.406,0.635
				c-0.036,0.26,0.002,0.545,0.168,0.759c0.149,0.192,0.382,0.389,0.635,0.406c0.649,0.043,1.298,0.086,1.947,0.129
				c0.136,0.03,0.269,0.024,0.399-0.017c0.132-0.018,0.252-0.068,0.36-0.151c0.196-0.139,0.372-0.393,0.406-0.635
				C337.391,215.016,337.353,214.731,337.187,214.517z"/>
			<path style="fill:#E8428D;" d="M332.151,212.5c-0.072-0.046-0.143-0.092-0.215-0.138c-0.163-0.077-0.335-0.107-0.515-0.092
				h-1.946c-0.243,0-0.528,0.173-0.679,0.353c-0.158,0.188-0.263,0.483-0.23,0.73c0.034,0.257,0.142,0.516,0.353,0.679
				c0.072,0.046,0.143,0.092,0.215,0.138c0.163,0.077,0.335,0.107,0.515,0.092h1.946c0.243,0,0.528-0.173,0.679-0.353
				c0.158-0.188,0.263-0.483,0.23-0.73C332.47,212.922,332.362,212.663,332.151,212.5z"/>
			<path style="fill:#E8428D;" d="M327.461,210.03c-0.155-0.2-0.377-0.373-0.635-0.406c-0.741-0.095-1.482-0.19-2.223-0.284
				c-0.266-0.034-0.536,0.009-0.759,0.168c-0.196,0.139-0.372,0.393-0.406,0.635c-0.036,0.26,0.002,0.545,0.168,0.759
				c0.155,0.2,0.377,0.373,0.635,0.406c0.741,0.095,1.482,0.19,2.223,0.284c0.266,0.034,0.536-0.009,0.759-0.168
				c0.196-0.139,0.372-0.393,0.406-0.635C327.665,210.529,327.627,210.244,327.461,210.03z"/>
			<path style="fill:#E8428D;" d="M324.818,214.773c-0.163-0.209-0.373-0.349-0.635-0.406c-0.649-0.139-1.297-0.278-1.946-0.417
				c-0.249-0.053-0.553,0.022-0.759,0.168c-0.196,0.139-0.372,0.393-0.406,0.635c-0.036,0.26,0.002,0.545,0.168,0.759
				c0.163,0.209,0.373,0.349,0.635,0.406c0.649,0.139,1.297,0.278,1.946,0.417c0.249,0.053,0.553-0.022,0.759-0.168
				c0.196-0.139,0.372-0.393,0.406-0.635C325.022,215.272,324.984,214.987,324.818,214.773z"/>
			<path style="fill:#E8428D;" d="M321.476,211.343c-0.155-0.2-0.377-0.371-0.635-0.406c-0.695-0.092-1.39-0.184-2.085-0.276
				c-0.265-0.035-0.537,0.01-0.759,0.168c-0.196,0.139-0.372,0.393-0.406,0.635c-0.036,0.26,0.002,0.545,0.168,0.759
				c0.155,0.2,0.377,0.371,0.635,0.406c0.695,0.092,1.39,0.184,2.085,0.276c0.265,0.035,0.537-0.01,0.759-0.168
				c0.196-0.139,0.372-0.393,0.406-0.635C321.68,211.842,321.642,211.556,321.476,211.343z"/>
			<path style="fill:#E8428D;" d="M347.265,184.624c-0.52-0.072-1.085,0.249-1.165,0.803l-0.42,2.919
				c-0.074,0.517,0.254,1.089,0.803,1.165c0.52,0.071,1.085-0.249,1.165-0.803l0.42-2.919
				C348.143,185.271,347.815,184.699,347.265,184.624z"/>
			<path style="fill:#E8428D;" d="M354.982,185.306c-0.139-0.196-0.393-0.372-0.635-0.406c-0.26-0.036-0.545,0.002-0.759,0.168
				c-0.19,0.147-0.393,0.383-0.406,0.635c-0.046,0.927-0.093,1.853-0.139,2.78c-0.014,0.281-0.002,0.519,0.168,0.759
				c0.139,0.196,0.393,0.372,0.635,0.406c0.26,0.036,0.545-0.002,0.759-0.168c0.19-0.147,0.393-0.383,0.406-0.635l0.139-2.78
				C355.164,185.784,355.152,185.546,354.982,185.306z"/>
			<path style="fill:#E8428D;" d="M362.482,184.472c-0.139-0.196-0.393-0.372-0.635-0.406c-0.26-0.036-0.545,0.002-0.759,0.168
				c-0.19,0.148-0.393,0.383-0.406,0.635l-0.138,2.641c-0.015,0.28-0.002,0.52,0.168,0.759c0.139,0.196,0.393,0.372,0.635,0.406
				c0.26,0.036,0.545-0.002,0.759-0.168c0.19-0.148,0.393-0.383,0.406-0.635c0.046-0.88,0.092-1.761,0.138-2.641
				C362.665,184.95,362.652,184.711,362.482,184.472z"/>
			<path style="fill:#E8428D;" d="M351.624,191.559c-0.139-0.196-0.393-0.372-0.635-0.406c-0.26-0.036-0.545,0.002-0.759,0.168
				c-0.197,0.153-0.378,0.378-0.406,0.635c-0.099,0.926-0.199,1.852-0.298,2.778c-0.029,0.27,0.006,0.531,0.168,0.759
				c0.139,0.196,0.393,0.372,0.635,0.406c0.26,0.036,0.545-0.002,0.759-0.168c0.197-0.153,0.378-0.378,0.406-0.635
				c0.099-0.926,0.199-1.852,0.298-2.778C351.82,192.047,351.785,191.786,351.624,191.559z"/>
			<path style="fill:#E8428D;" d="M358.56,190.817c-0.188-0.158-0.483-0.263-0.73-0.23c-0.257,0.034-0.516,0.142-0.679,0.353
				c-0.17,0.221-0.23,0.452-0.23,0.73v2.224c0,0.243,0.173,0.528,0.353,0.679c0.188,0.158,0.483,0.263,0.73,0.23
				c0.257-0.034,0.516-0.142,0.679-0.353c0.17-0.221,0.23-0.452,0.23-0.73v-2.224C358.913,191.253,358.74,190.968,358.56,190.817z"
				/>
			<path style="fill:#E8428D;" d="M344.557,195.761c-0.559-0.077-1.037,0.257-1.165,0.803c-0.194,0.832-0.389,1.664-0.583,2.496
				c-0.119,0.51,0.286,1.093,0.803,1.165c0.559,0.077,1.037-0.257,1.165-0.803l0.583-2.496
				C345.479,196.416,345.074,195.832,344.557,195.761z"/>
			<path style="fill:#E8428D;" d="M376.39,203.932c-0.139-0.196-0.393-0.372-0.635-0.406c-0.26-0.036-0.545,0.002-0.759,0.168
				c-0.19,0.147-0.394,0.383-0.406,0.635c-0.046,0.973-0.092,1.946-0.138,2.919c-0.013,0.281-0.003,0.519,0.168,0.759
				c0.139,0.196,0.393,0.372,0.635,0.406c0.26,0.036,0.545-0.002,0.759-0.168c0.19-0.147,0.394-0.383,0.406-0.635
				c0.046-0.973,0.092-1.946,0.138-2.919C376.571,204.409,376.56,204.172,376.39,203.932z"/>
			<path style="fill:#E8428D;" d="M372.494,209.908c-0.139-0.196-0.393-0.372-0.635-0.406c-0.26-0.036-0.545,0.002-0.759,0.168
				c-0.203,0.157-0.366,0.375-0.406,0.635c-0.093,0.602-0.185,1.205-0.278,1.807c-0.04,0.261,0.013,0.541,0.168,0.759
				c0.139,0.196,0.393,0.372,0.635,0.406c0.26,0.036,0.545-0.002,0.759-0.168c0.203-0.157,0.366-0.375,0.406-0.635
				c0.093-0.602,0.185-1.205,0.278-1.807C372.702,210.406,372.648,210.126,372.494,209.908z"/>
			<path style="fill:#E8428D;" d="M381.172,209.884c-0.051-0.12-0.129-0.221-0.234-0.303c-0.188-0.158-0.483-0.263-0.73-0.23
				c-0.257,0.034-0.516,0.142-0.679,0.353c-0.046,0.072-0.092,0.144-0.138,0.215c-0.077,0.163-0.107,0.335-0.092,0.515v1.529
				c0.007,0.138,0.047,0.263,0.119,0.376c0.051,0.12,0.129,0.221,0.234,0.303c0.188,0.158,0.483,0.263,0.73,0.23
				c0.257-0.034,0.516-0.142,0.679-0.353c0.046-0.072,0.092-0.143,0.138-0.215c0.077-0.163,0.107-0.335,0.092-0.515v-1.529
				C381.285,210.123,381.245,209.997,381.172,209.884z"/>
			<path style="fill:#E8428D;" d="M375.83,215.329c-0.139-0.196-0.393-0.372-0.635-0.406c-0.26-0.036-0.545,0.002-0.759,0.168
				c-0.204,0.158-0.362,0.375-0.406,0.635c-0.093,0.556-0.185,1.112-0.278,1.668c-0.043,0.259,0.015,0.544,0.168,0.759
				c0.139,0.196,0.393,0.372,0.635,0.406c0.26,0.036,0.545-0.002,0.759-0.168c0.204-0.158,0.362-0.375,0.406-0.635
				c0.093-0.556,0.185-1.112,0.278-1.668C376.04,215.829,375.982,215.544,375.83,215.329z"/>
			<path style="fill:#E8428D;" d="M367.251,216.307c-0.139-0.196-0.393-0.372-0.635-0.406c-0.26-0.036-0.545,0.002-0.759,0.168
				c-0.2,0.155-0.372,0.377-0.406,0.635c-0.095,0.741-0.191,1.482-0.286,2.223c-0.034,0.266,0.01,0.536,0.168,0.759
				c0.139,0.196,0.393,0.372,0.635,0.406c0.26,0.036,0.545-0.002,0.759-0.168c0.2-0.155,0.372-0.377,0.406-0.635
				c0.095-0.741,0.191-1.482,0.286-2.223C367.453,216.8,367.409,216.53,367.251,216.307z"/>
			<path style="fill:#E8428D;" d="M359.528,215.836c-0.188-0.158-0.483-0.263-0.73-0.23c-0.257,0.034-0.516,0.142-0.679,0.353
				c-0.171,0.222-0.226,0.45-0.23,0.73c-0.018,1.065-0.035,2.131-0.053,3.196c-0.004,0.24,0.176,0.53,0.353,0.679
				c0.188,0.158,0.483,0.263,0.73,0.23c0.257-0.034,0.516-0.142,0.679-0.353c0.171-0.222,0.226-0.45,0.23-0.73
				c0.018-1.065,0.035-2.131,0.053-3.196C359.885,216.274,359.705,215.984,359.528,215.836z"/>
			<path style="fill:#E8428D;" d="M385.45,218.602c-0.187-1.019-0.374-2.038-0.561-3.057c-0.049-0.268-0.138-0.498-0.353-0.679
				c-0.188-0.158-0.483-0.263-0.73-0.23c-0.496,0.066-1.01,0.532-0.909,1.083l0.561,3.057c0.049,0.268,0.138,0.498,0.353,0.679
				c0.188,0.158,0.483,0.263,0.73,0.23C385.037,219.62,385.551,219.153,385.45,218.602z"/>
			<path style="fill:#E8428D;" d="M354.522,223.324c-0.016-0.524-0.569-0.977-1.083-0.909c-0.563,0.075-0.926,0.522-0.909,1.083
				c0.036,1.205,0.073,2.41,0.109,3.615c0.016,0.524,0.569,0.977,1.083,0.909c0.563-0.075,0.926-0.522,0.909-1.083
				C354.594,225.734,354.558,224.529,354.522,223.324z"/>
			<path style="fill:#E8428D;" d="M363.666,223.741c-0.04-0.522-0.552-0.98-1.083-0.909c-0.542,0.072-0.952,0.524-0.909,1.083
				c0.082,1.066,0.163,2.133,0.245,3.199c0.04,0.522,0.552,0.98,1.083,0.909c0.542-0.072,0.952-0.524,0.909-1.083
				C363.829,225.874,363.747,224.807,363.666,223.741z"/>
			<path style="fill:#E8428D;" d="M372.287,223.324c-0.016-0.252-0.161-0.518-0.353-0.679c-0.188-0.158-0.483-0.263-0.73-0.23
				c-0.548,0.073-0.945,0.524-0.909,1.083c0.044,0.695,0.088,1.39,0.133,2.085c0.016,0.252,0.161,0.518,0.353,0.679
				c0.188,0.158,0.483,0.263,0.73,0.23c0.548-0.073,0.945-0.524,0.909-1.083C372.375,224.714,372.331,224.019,372.287,223.324z"/>
			<path style="fill:#E8428D;" d="M380.955,224.176c-0.232-0.741-0.463-1.483-0.695-2.224c-0.073-0.232-0.295-0.453-0.51-0.555
				c-0.224-0.106-0.544-0.132-0.776-0.033c-0.521,0.22-0.756,0.751-0.589,1.286c0.232,0.741,0.463,1.483,0.695,2.224
				c0.073,0.232,0.295,0.453,0.51,0.555c0.224,0.106,0.544,0.132,0.776,0.033C380.887,225.242,381.122,224.712,380.955,224.176z"/>
			<path style="fill:#E8428D;" d="M389.861,223.338c-0.277-0.695-0.554-1.391-0.831-2.086c-0.094-0.237-0.277-0.445-0.51-0.555
				c-0.224-0.106-0.544-0.132-0.776-0.033c-0.234,0.099-0.454,0.269-0.555,0.51c-0.103,0.245-0.134,0.523-0.033,0.776l0.831,2.086
				c0.094,0.237,0.277,0.445,0.51,0.555c0.224,0.106,0.544,0.132,0.776,0.033c0.234-0.099,0.454-0.269,0.555-0.51
				C389.931,223.869,389.962,223.591,389.861,223.338z"/>
		</g>
		<circle style="fill:#F973B7;" cx="375.469" cy="102.464" r="5.653"/>
		<g>
			<path style="fill:#211E5E;" d="M361.268,131.432c0.28,1.31,0.48,2.63,0.62,3.96c-14.05,2.46-28.98-0.66-40.86-8.51
				c2.42-1.67,4.3-4.09,5.34-6.83c6.59,7.38,16.5,12.07,27.59,12.07C356.468,132.122,358.918,131.892,361.268,131.432z"/>
			<path style="fill:#211E5E;" d="M416.968,108.962c-3.61,5.18-8.06,9.77-13.08,13.61c-9.36,7.16-20.74,11.72-32.49,12.73
				c-0.48-2.1-1.2-4.15-2.15-6.09c-0.02-0.08-0.06-0.16-0.1-0.23c5.46-2.38,10.17-6.02,13.72-10.5c2-2.52,3.63-5.3,4.82-8.29
				c0.1-0.03,0.19-0.06,0.29-0.11c2.92-1.12,5.55-3.02,7.51-5.45c2.4-2.98,3.81-6.73,3.97-10.55c0.1-2.55-0.55-5.42-2.71-6.77
				c-2.11-1.31-5.02-0.66-6.93,0.93c-1.9,1.55-3.04,3.83-4.03,6.08c-4.75-5.94-7.58-13.39-7.97-20.97l-0.26-0.19
				c-1.75,2.52-4.28,4.41-6.89,6.01c-7.29,4.46-15.69,7.08-24.22,7.54c-6.53,0.36-13.12-0.54-19.31-2.62
				c-1.61-0.53-3.2-1.15-4.74-1.86l-0.08,0.17c-2.73,4.7-4.3,10.08-4.34,15.8c-1.81-7.86-1.01-16.16,1.87-23.7
				c2.6-6.85,6.9-13.08,12.52-17.77c0.32-0.26,0.64-0.52,0.96-0.77c12.72-9.99,30.84-12.2,45.94-6.4c0.16,0.06,0.32,0.13,0.47,0.19
				c1.18,0.47,2.35,0.99,3.5,1.56c5.74,2.88,10.87,7.05,14.11,12.56c4.3,7.31,4.91,16.1,6.67,24.4
				C405.758,96.522,409.388,105.282,416.968,108.962z"/>
			<path style="fill:#433C85;" d="M379.263,49.565c0.16,0.059,0.32,0.126,0.471,0.185c-6.781,6.023-15.471,9.885-24.489,10.819
				c-7.782,0.808-15.774-0.564-22.874-3.836c0.32-0.261,0.639-0.522,0.959-0.774C346.05,45.973,364.171,43.76,379.263,49.565z"/>
			<path style="fill:#433C85;" d="M317.977,98.199c-1.809-7.857-1.01-16.161,1.868-23.698c5.83,3.567,12.998,4.585,19.854,4.173
				c9.523-0.58,18.87-3.752,26.769-9.094c6.907-4.669,12.695-10.995,16.766-18.264c5.746,2.877,10.869,7.05,14.116,12.56
				c4.299,7.302,4.905,16.102,6.663,24.397c1.741,8.253,5.376,17.01,12.955,20.687c-3.609,5.182-8.059,9.775-13.082,13.612
				c-6.166-2.86-11.677-7.159-15.908-12.484c2.919-1.127,5.544-3.02,7.512-5.451c2.398-2.978,3.811-6.73,3.962-10.549
				c0.101-2.549-0.547-5.418-2.709-6.772c-2.112-1.312-5.014-0.656-6.932,0.925c-1.893,1.556-3.037,3.836-4.03,6.082
				c-4.745-5.939-7.58-13.385-7.967-20.973l-0.261-0.185c-1.75,2.515-4.274,4.408-6.89,6.007c-7.285,4.467-15.69,7.083-24.22,7.546
				c-6.528,0.362-13.115-0.547-19.307-2.625c-1.615-0.53-3.197-1.153-4.745-1.859l-0.076,0.168
				C319.593,87.102,318.019,92.478,317.977,98.199z"/>
			<path style="fill:#FFBE5F;" d="M399.458,94.082c-0.16,3.82-1.57,7.57-3.97,10.55c-1.96,2.43-4.59,4.33-7.51,5.45
				c-0.1,0.05-0.19,0.08-0.29,0.11c-1.19,2.99-2.82,5.77-4.82,8.29c-3.55,4.48-8.26,8.12-13.72,10.5c0.04,0.07,0.08,0.15,0.1,0.23
				c0.95,1.94,1.67,3.99,2.15,6.09c0.62,2.69,0.87,5.46,0.72,8.21c-0.02,0.45-0.06,0.91-0.11,1.36h-0.03
				c-2.51,3.5-7.1,5.38-11.34,4.64c0.55-1.91,0.93-3.87,1.17-5.85c0.18-1.51,0.26-3.02,0.26-4.54c0-1.24-0.07-2.49-0.18-3.73
				c-0.14-1.33-0.34-2.65-0.62-3.96c-2.35,0.46-4.8,0.69-7.31,0.69c-11.09,0-21-4.69-27.59-12.07c-5.24-5.84-8.39-13.38-8.39-21.6
				v-0.25c0.04-5.72,1.61-11.1,4.34-15.8l0.08-0.17c1.54,0.71,3.13,1.33,4.74,1.86c6.19,2.08,12.78,2.98,19.31,2.62
				c8.53-0.46,16.93-3.08,24.22-7.54c2.61-1.6,5.14-3.49,6.89-6.01l0.26,0.19c0.39,7.58,3.22,15.03,7.97,20.97
				c0.99-2.25,2.13-4.53,4.03-6.08c1.91-1.59,4.82-2.24,6.93-0.93C398.908,88.662,399.558,91.532,399.458,94.082z"/>
			<path style="fill:#F7991E;" d="M394.204,100.133c0.866,0.244,1.119,1.422,0.824,2.288c-0.505,1.455-2.128,2.372-3.668,2.221
				c-1.531-0.151-2.886-1.262-3.508-2.675c-0.614-1.405-0.538-3.071,0.025-4.501c0.572-1.43,1.598-2.65,2.801-3.617
				c0.917-0.74,2.019-1.371,3.18-1.455c-1.952,1.245-3.365,3.281-3.853,5.544c-0.118,0.564-0.185,1.161-0.017,1.716
				c0.168,0.555,0.606,1.06,1.178,1.161C392.21,100.992,393.186,99.839,394.204,100.133z"/>
			<path style="fill:#F7991E;" d="M369.143,128.98c-2.482,1.094-5.123,1.918-7.874,2.448c-2.356,0.463-4.804,0.698-7.311,0.698
				c-11.088,0-20.998-4.694-27.593-12.072c-5.233-5.847-8.387-13.385-8.387-21.604c0-0.084,0-0.168,0-0.252
				c0.042-5.721,1.615-11.096,4.341-15.799l0.076-0.168c1.548,0.707,3.129,1.329,4.745,1.859
				c-3.693,9.439-2.734,20.577,2.532,29.242c5.342,8.791,14.983,14.831,25.229,15.782c10.238,0.959,20.838-3.188,27.711-10.844
				l0.261,0.21C379.322,122.965,374.603,126.6,369.143,128.98z"/>
			<circle style="fill:#F973B7;" cx="375.469" cy="102.464" r="5.653"/>
			<path style="fill:#E8428D;" d="M365.879,205.451c9.523-7.664,16.421-18.18,19.854-29.781
				c-0.244,1.363-8.396,45.016-50.602,50.467c-0.008-0.008-0.008-0.025-0.017-0.034v-0.008c-1.094-2.616,0.58-4.341,1.733-5.165
				c0.522-0.379,0.934-0.564,0.934-0.564c0.017-0.429,0.042-0.875,0.059-1.329c0.025-0.395,0.05-0.799,0.076-1.203
				C348.061,216.194,357.778,211.971,365.879,205.451z"/>
			<path style="fill:#E8428D;" d="M376.891,164.541c-1.548,12.493-8.093,24.523-17.868,32.389
				c-5.737,4.61-12.636,7.841-19.896,9.473c0.252-1.876,0.522-3.76,0.799-5.611c0.48-0.076,17.145-2.591,28.805-18.979
				C372.003,177.227,374.872,171.548,376.891,164.541z"/>
			<path style="fill:#D37B11;" d="M361.883,135.391c-0.135-1.329-0.337-2.65-0.614-3.962c2.751-0.53,5.392-1.354,7.874-2.448
				c0.042,0.076,0.084,0.151,0.109,0.227l-0.084,0.042c-0.934,4.063-3.559,7.689-7.1,9.876
				C362.068,137.881,362.001,136.636,361.883,135.391z"/>
			<path style="fill:#8E2965;" d="M368.016,110.481c0.942,1.439,1.153,3.247,0.967,4.955c-0.286,2.675-1.506,5.249-3.407,7.159
				c-0.841,0.85-1.826,1.565-2.886,2.128c-1.136-2.448-1.396-5.3-0.698-7.908c0.766-2.86,2.675-5.393,5.216-6.924l0.101-0.261
				C367.578,109.884,367.814,110.17,368.016,110.481z"/>
			<path style="fill:#541638;" d="M356.818,113.964c1.195-1.144,2.389-2.28,3.584-3.416c0.942-0.9,1.952-1.842,3.222-2.112
				c1.321-0.278,2.7,0.252,3.685,1.195l-0.101,0.261c-2.541,1.531-4.45,4.063-5.216,6.924c-0.698,2.608-0.437,5.46,0.698,7.908
				c-1.321,0.698-2.776,1.161-4.265,1.329c-2.078,0.236-4.307-0.126-5.973-1.405c-1.657-1.279-2.6-3.592-1.893-5.569
				c0.614-1.741,2.28-2.86,3.895-3.752C355.245,114.889,356.07,114.46,356.818,113.964z"/>
			<path style="fill:#E8428D;" d="M367.208,181.156h-21.595c0,0,2.339-5.14,9.002-4.56
				C361.286,177.185,367.208,181.156,367.208,181.156z"/>
			<ellipse cx="360.31" cy="94.354" rx="2.785" ry="3.685"/>
			<path style="fill:#D37B11;" d="M345.369,99.965c0.951,3.239,1.91,6.478,2.869,9.725c-3.087,1.01-6.444,1.203-9.632,0.555
				c-0.824-0.16-1.649-0.395-2.364-0.833c-0.715-0.446-1.312-1.136-1.489-1.96c-0.278-1.279,0.522-2.583,1.582-3.34
				c1.06-0.766,2.347-1.119,3.575-1.54C341.819,101.909,343.653,101.034,345.369,99.965z"/>
			<g>
				<path style="fill:#FFE9CC;" d="M482.772,371.912l-3.121,6.217c-1.716-2.65-2.339-5.998-1.75-9.102L482.772,371.912z"/>
				<path style="fill:#1ED1C8;" d="M479.651,378.129l-7.168,14.259c-2.877-1.573-6.267-2.213-9.515-1.792
					c-0.631-5.468,2.625-10.045,2.625-10.045l3.988-7.26l3.811-6.94l4.509,2.675C477.313,372.131,477.935,375.479,479.651,378.129z"
					/>
				<path style="fill:#544FC9;" d="M474.503,364.332l-1.11,2.019l-3.811,6.94l-3.988,7.26l-15.21-2.246l4.173-4.324l5.249-5.451
					l7.874-8.16C469.926,361.741,472.198,363.07,474.503,364.332z"/>
				<path style="fill:#FFE9CC;" d="M472.484,392.389l-3.744,7.437c-3.903-2.936-5.426-6.217-5.771-9.229
					C466.216,390.176,469.607,390.815,472.484,392.389z"/>
				<path style="fill:#211E5E;" d="M467.68,360.37l-7.874,8.16c-68.134-36.385-84.143-115.573-84.143-115.573
					c9.119-7.891,8.152-25.078,8.152-25.078c2.28-0.555,4.644-1.211,7.083-1.952c0,0,0.042-0.034,0.109-0.093
					c0.362,1.632,0.555,3.331,0.555,5.064c0,5.67-2.053,10.92-5.519,15.168C396.434,292.682,426.963,335.41,467.68,360.37z"/>
				<path style="fill:#433C85;" d="M459.806,368.53l-5.249,5.451c-20.771-13.342-39.279-30.958-54.009-51.519
					c-14.512-20.224-25.145-43.005-31.169-66.552c-2.019,0.412-4.122,0.631-6.284,0.631c-3.029,0-5.939-0.421-8.673-1.211
					c-1.615-0.471-3.172-1.06-4.644-1.767c-0.219-0.101-0.437-0.21-0.648-0.32c-0.008,0-0.008,0-0.008,0
					c-0.353-0.177-0.707-0.37-1.052-0.564c-0.395-0.219-0.782-0.454-1.169-0.69c-0.37-0.236-0.74-0.48-1.102-0.732
					c-0.193-0.135-0.395-0.269-0.589-0.412c-0.471-0.345-0.934-0.698-1.371-1.068c-0.101-0.076-0.202-0.168-0.303-0.252
					c-0.193-0.168-0.387-0.337-0.58-0.505c-0.421-0.379-0.833-0.774-1.228-1.178c-0.227-0.227-0.446-0.463-0.656-0.698
					c-0.236-0.252-0.454-0.505-0.673-0.766c-0.278-0.328-0.547-0.656-0.808-1.001c-0.202-0.261-0.395-0.53-0.589-0.808
					c-0.21-0.294-0.412-0.597-0.606-0.909c-0.109-0.16-0.21-0.32-0.303-0.488c-0.101-0.16-0.202-0.328-0.294-0.488
					c-2.027-3.525-3.18-7.538-3.18-11.786c0-1.64,0.168-3.239,0.496-4.795c0.008,0.008,0.008,0.025,0.017,0.034
					c0,0,15.841,9.834,48.684,1.741c0,0,0.967,17.187-8.152,25.078C375.663,252.957,391.672,332.146,459.806,368.53z"/>
				<path style="fill:#FFE9CC;" d="M368.764,415.692l2.532,7.025l-5.157,2.154c-0.236-1.809-0.059-3.676,0.522-5.409
					C367.124,418.089,367.839,416.81,368.764,415.692z"/>
				<path style="fill:#544FC9;" d="M369.858,409.719l-2.869,1.06l-4.921,1.817l-9.574,3.542l-9.288-7.075l6.251-1.531l9.75-2.381
					l8.303-2.027C368.268,405.336,369.05,407.531,369.858,409.719z"/>
				<path style="fill:#1ED1C8;" d="M366.989,410.779l1.775,4.913c-0.925,1.119-1.64,2.398-2.103,3.769
					c-0.58,1.733-0.757,3.601-0.522,5.409l-10.583,4.417h-9.683c-0.673-3.609-2.953-6.924-6.099-8.833
					c5.283-3.584,12.72-4.316,12.72-4.316l9.574-3.542L366.989,410.779z"/>
				<path style="fill:#211E5E;" d="M367.511,403.123l-8.303,2.027C332.969,333.071,346.9,251.99,346.9,251.99
					c0.387,0.236,0.774,0.471,1.169,0.69c0.345,0.193,0.698,0.387,1.052,0.564c0,0,0,0,0.008,0c0.21,0.109,0.429,0.219,0.648,0.32
					c1.472,0.707,3.029,1.296,4.644,1.767C346.858,304.468,351.409,356.164,367.511,403.123z"/>
				<path style="fill:#433C85;" d="M359.208,405.15l-9.75,2.381c-8.724-25.818-14.175-52.781-16.245-80.299
					c-2.137-28.443-0.589-56.853,4.585-84.547c0.093,0.16,0.193,0.328,0.294,0.488c0.093,0.16,0.193,0.328,0.303,0.488
					c0.193,0.311,0.395,0.614,0.606,0.909c0.193,0.278,0.387,0.547,0.589,0.808c0.261,0.345,0.53,0.673,0.808,1.001
					c0.21,0.261,0.437,0.513,0.673,0.766c0.21,0.236,0.429,0.471,0.656,0.698c0.395,0.404,0.808,0.799,1.228,1.178
					c0.286,0.261,0.58,0.513,0.883,0.757c0.437,0.37,0.9,0.723,1.371,1.068c0.547,0.404,1.11,0.782,1.691,1.144
					C346.9,251.99,332.969,333.071,359.208,405.15z"/>
				<path style="fill:#FFE9CC;" d="M345.874,429.286h-11.256c0-4.038,2.255-6.865,5.157-8.833
					C342.921,422.363,345.201,425.677,345.874,429.286z"/>
			</g>
			<path style="fill:#E8428D;" d="M342.071,148.876c0.269,0.488,0.538,0.799,0.538,0.799s-9.271,13.241-9.355,21.427
				c0,0.236,0,0.463,0.017,0.681c-8.354,6.234-17.54,11.29-27.249,15.025c-12.796,4.938-26.491,7.571-40.33,7.571
				c-0.808,0-1.615-0.008-2.423-0.025l0.244-10.936C293.236,184.092,322.47,171.203,342.071,148.876z"/>
			<path d="M334.02,90.669c1.54,0,2.785,1.649,2.785,3.685s-1.245,3.685-2.785,3.685s-2.793-1.649-2.793-3.685
				S332.481,90.669,334.02,90.669z"/>
		</g>
		<g>
			<path style="fill:#FFD05A;" d="M317.097,171.497c-0.883-1.287-1.91-2.515-3.054-3.66c-4.787-4.787-10.936-7.395-17.195-7.807
				c-5.115-0.345-10.305,0.766-14.899,3.331l-13.83-13.822l-1.876-1.876l1.876-1.876l7.412-7.412l-10.364-10.364l-9.288,9.288
				l-4.627-4.627l9.288-9.288l-10.364-10.364l-4.745,4.745l-4.543,4.543l-5.241-5.241l-10.356,10.364l20.14,20.14l22.689,22.689
				l3.466,3.466c-2.263,4.063-3.399,8.581-3.399,13.098c0,6.873,2.616,13.746,7.866,18.996c5.704,5.704,13.334,8.303,20.796,7.799
				c5.737-0.379,11.374-2.591,15.959-6.646c0.421-0.37,0.833-0.757,1.228-1.161c1.153-1.153,2.179-2.381,3.062-3.668
				C323.499,192.966,323.499,180.675,317.097,171.497z M304.932,196.718c-0.404,0.404-0.816,0.766-1.27,1.11
				c-2.019,1.598-4.391,2.549-6.814,2.869c-4.139,0.522-8.472-0.799-11.643-3.979c-5.056-5.048-5.426-13.006-1.119-18.466
				c0.345-0.446,0.715-0.866,1.119-1.27c3.18-3.18,7.504-4.509,11.643-3.971c2.961,0.379,5.822,1.699,8.093,3.971
				C310.392,182.433,310.383,191.266,304.932,196.718z"/>
			<path style="fill:#FFE888;" d="M317.097,171.497v30.647c-0.883,1.287-1.91,2.515-3.062,3.668
				c-0.395,0.404-0.808,0.791-1.228,1.161c-4.585,4.055-10.221,6.267-15.959,6.646v-12.922c2.423-0.32,4.795-1.27,6.814-2.869
				c0.454-0.345,0.867-0.707,1.27-1.11c5.451-5.451,5.46-14.285,0.008-19.736c-2.271-2.271-5.132-3.592-8.093-3.971V160.03
				c6.259,0.412,12.409,3.02,17.195,7.807C315.187,168.981,316.213,170.21,317.097,171.497z"/>
			<polygon style="fill:#FFE888;" points="268.118,149.54 268.118,170.26 245.429,147.571 245.429,117.765 250.174,113.02 
				260.538,123.385 251.251,132.672 255.878,137.299 265.165,128.012 268.118,130.965 268.118,145.788 266.242,147.664 			"/>
			<path style="fill:#F7991E;" d="M284.085,178.252c0.345-0.446,0.715-0.866,1.119-1.27c3.18-3.18,7.504-4.509,11.643-3.971
				c2.961,0.379,5.822,1.699,8.093,3.971c5.451,5.451,5.443,14.285-0.008,19.736c-0.404,0.404-0.816,0.766-1.27,1.11
				c4.316-5.468,3.946-13.418-1.102-18.466c-1.657-1.657-3.626-2.81-5.712-3.458C292.565,174.567,287.762,175.35,284.085,178.252z"
				/>
			<path style="fill:#F7991E;" d="M312.806,206.973c-0.37,0.412-0.757,0.824-1.153,1.22c-4.181,4.181-9.389,6.696-14.806,7.538
				c-8.194,1.296-16.867-1.22-23.177-7.529c-2.406-2.406-4.265-5.157-5.552-8.093c-3.087-6.932-3.079-14.89,0-21.822
				c0.328-0.74,0.69-1.464,1.085-2.179l-46.295-46.295l2.381-2.381l20.14,20.14l22.689,22.689l3.466,3.466
				c-2.263,4.063-3.399,8.581-3.399,13.098c0,6.873,2.616,13.746,7.866,18.996c5.704,5.704,13.334,8.303,20.796,7.799
				C302.585,213.24,308.221,211.028,312.806,206.973z"/>
		</g>
		<path style="fill:#FFBE5F;" d="M312.021,198.494c2.011,2.7,4.021,5.409,6.032,8.11c-0.084-0.017-0.16-0.034-0.244-0.05
			l-2.187,9.851l-0.379-0.084c-4.728-0.976-9.321-2.574-13.628-4.745c-1.54-0.782-3.197-1.817-3.601-3.5
			c-0.202-0.875-0.017-1.834,0.505-2.566c0.53-0.723,1.371-1.211,2.271-1.296c-0.967-0.749-1.346-2.154-0.883-3.281
			c0.454-1.127,1.716-1.876,2.928-1.733c-0.757-0.597-1.094-1.666-0.816-2.591c0.278-0.917,1.153-1.624,2.103-1.716
			c0.951-0.084,1.927,0.454,2.372,1.304l0.151-0.093c-0.21-1.775-0.421-3.559-0.639-5.342c-0.093-0.766-0.118-1.699,0.513-2.145
			c0.05-0.034,0.109-0.067,0.168-0.101c0.379-0.177,0.85-0.143,1.237,0.034c0.454,0.21,0.808,0.572,1.127,0.942
			C311.172,191.941,312.265,195.255,312.021,198.494z"/>
		<path style="fill:#FFBE5F;" d="M263.636,182.77c-0.2-1.241-0.395-2.471-0.585-3.718c-0.158-0.966-0.3-1.953-0.109-2.914
			l0.183-0.63c0.319-0.766,0.911-1.417,1.702-1.608c0.847-0.201,1.761,0.179,2.377,0.804c0.618,0.617,0.983,1.442,1.258,2.275
			c0.544,1.656,0.788,3.409,0.694,5.151c0.998-0.271,2.026-0.551,3.057-0.452c1.032,0.098,2.086,0.658,2.473,1.62
			c0.383,0.943,0.035,2.051-0.605,2.838c-0.638,0.778-1.536,1.306-2.413,1.822c0.934-0.289,1.913-0.583,2.882-0.451
			c0.967,0.141,1.934,0.851,2.028,1.824c0.047,0.531-0.161,1.066-0.463,1.504c-0.829,1.196-2.262,1.787-3.618,2.322
			c0.861-0.039,1.733-0.084,2.547,0.188c0.815,0.272,1.556,0.916,1.677,1.766c0.157,1.088-0.718,2.051-1.609,2.704
			c-2.23,1.647-5.001,2.56-7.78,2.568c-1.113,0.001-2.253-0.146-3.249-0.637c-0.999-0.483-1.852-1.344-2.145-2.419
			c-0.292-1.075,0.068-2.346,1-2.96c-1.423,0.042-2.754-1.194-2.815-2.613c-0.063-1.411,1.162-2.764,2.578-2.843
			c-1.256-0.742-2.123-2.193-1.923-3.633C260.962,183.894,262.259,182.685,263.636,182.77z"/>
		<path style="fill:#211E5E;" d="M354.059,230.975c-0.016-0.54-0.567-0.954-1.083-0.909c-0.565,0.049-0.925,0.541-0.909,1.083
			c0.086,2.826,0.172,5.653,0.257,8.479c0.016,0.54,0.567,0.954,1.083,0.909c0.565-0.049,0.926-0.541,0.909-1.083
			C354.23,236.627,354.144,233.801,354.059,230.975z"/>
		<path style="fill:#211E5E;" d="M359.184,233.011c-0.021-0.106-0.038-0.245-0.091-0.351c-0.047-0.093-0.103-0.225-0.179-0.312
			c-0.065-0.074-0.131-0.151-0.203-0.218c-0.014-0.013-0.029-0.025-0.044-0.037c-0.041-0.03-0.088-0.057-0.13-0.084
			c-0.041-0.026-0.086-0.058-0.131-0.083c-0.016-0.009-0.034-0.018-0.051-0.025c-0.009-0.004-0.019-0.007-0.028-0.01
			c-0.064-0.022-0.131-0.043-0.197-0.063c-0.055-0.045-0.102-0.101-0.17-0.131c-0.082-0.027-0.164-0.053-0.247-0.08
			c-0.181-0.032-0.357-0.017-0.53,0.046c-0.076,0.04-0.153,0.081-0.229,0.121c-0.142,0.102-0.251,0.231-0.326,0.389
			c-0.008,0.017-0.015,0.035-0.021,0.053c-0.029,0.086-0.06,0.174-0.084,0.262c-0.003,0.01-0.005,0.02-0.007,0.031
			c-0.003,0.018-0.005,0.036-0.006,0.054c-0.006,0.095-0.013,0.192-0.013,0.287c0,0.009,0,0.018,0.001,0.027
			c0.008,0.124,0.042,0.247,0.078,0.365c0.034,0.111,0.112,0.235,0.161,0.324c0.018,0.033,0.039,0.065,0.063,0.094
			c0.063,0.078,0.134,0.15,0.203,0.222c0.014,0.015,0.029,0.029,0.044,0.042c0.09,0.079,0.2,0.14,0.3,0.2
			c0.033,0.02,0.068,0.036,0.104,0.048c0.094,0.033,0.191,0.068,0.288,0.091c0.019,0.004,0.038,0.008,0.057,0.01
			c0.118,0.012,0.248,0.029,0.369,0.01c0.052-0.008,0.106-0.023,0.154-0.034c0.047-0.01,0.101-0.021,0.15-0.034
			c0.009-0.002,0.018-0.005,0.027-0.008c0.005-0.002,0.01-0.004,0.015-0.006c0.003-0.001,0.005-0.002,0.008-0.003
			c0.076-0.04,0.153-0.081,0.229-0.121c0.031-0.029,0.063-0.058,0.094-0.087c0.071-0.051,0.125-0.116,0.163-0.194
			c0.028-0.044,0.057-0.075,0.074-0.118c0.033-0.085,0.07-0.209,0.086-0.265c0.005-0.017,0.009-0.034,0.011-0.051
			c0.006-0.05,0.006-0.113,0.008-0.156c0.002-0.044,0.008-0.105,0.006-0.156C359.19,233.045,359.187,233.028,359.184,233.011z"/>
	</g>
</g>
</svg>
