<?xml version="1.0" encoding="utf-8"?>
<!-- Generator: Adobe Illustrator 27.5.0, SVG Export Plug-In . SVG Version: 6.00 Build 0)  -->
<svg version="1.1" xmlns="http://www.w3.org/2000/svg" xmlns:xlink="http://www.w3.org/1999/xlink" x="0px" y="0px"
	 viewBox="0 0 3710 3710" style="enable-background:new 0 0 3710 3710;" xml:space="preserve">
<g id="Background">
	<g>
		<g>
			<rect style="fill:#FFFFFF;" width="3710" height="3710"/>
		</g>
	</g>
</g>
<g id="Illustration">
	<g>
		<path style="fill:#F4F7FA;" d="M2917.136,2850.456c-72.966,75.211-138.253,119.422-188.239,152.798
			c-487.504,325.511-1044.775,231.691-1217.069,199.623c-277.976-51.737-512.625-88.235-714.231-270.378
			c-458.11-413.884-435.829-1277.278-85.776-1812.113c41.506-63.416,391.028-581.516,949.505-654.521
			c13.66-1.785,23.852-2.802,32.778-3.747c86.395-9.147,621.769-57.425,1058.312,308.311
			c62.489,52.353,163.052,146.785,256.307,290.809C3349.702,1587.857,3350.782,2403.471,2917.136,2850.456z"/>
		<g>
			<g>
				
					<linearGradient id="SVGID_1_" gradientUnits="userSpaceOnUse" x1="-1549.3192" y1="-195.3363" x2="-541.3606" y2="2453.1611" gradientTransform="matrix(-0.9526 -0.3041 -0.3041 0.9526 1198.1394 207.51)">
					<stop  offset="0" style="stop-color:#AA80F9"/>
					<stop  offset="0.9964" style="stop-color:#6165D7"/>
				</linearGradient>
				<path style="fill:url(#SVGID_1_);" d="M1689.925,2249.383c20.096,104.521-44.576,187.993-99.961,241.223
					c-9.48-2.297-15.633-1.036-25.777-1.088c-91.552-0.463-129.385-21.216-218.729-36.686c-19.23-3.33-71.848-31.359-92.568-44.309
					l-38.223-24.814c0,0-17.511-246.433,114.736-280.419c132.246-33.986,144.019-271.981,165.012-398.156
					c56.96-342.346,412.202-221.615,520.56-655.691c28.82-115.451,45.177-345.26,165.406-413.03
					c136.974-77.209,192.391,45.717,285.498-24.177c145.522-109.243,338.626-113.398,411.406,54.36
					c71.83,165.569-126.328,410.334-503.114,552.976c-258.718,132.952-275.868,187.747-292.82,327.358
					c-11.874,97.79,17.177,367.446-136.141,434.119C1791.892,2047.723,1666.951,2129.896,1689.925,2249.383z"/>
				<g>
					<defs>
						<path id="SVGID_00000124123071479095190090000008764261853744700854_" d="M1514.852,2553.407l-295.205-159.66
							c0,0-22.491-256.47,109.755-290.456c132.246-33.986,144.019-271.981,165.013-398.156
							c56.96-342.346,412.201-221.615,520.56-655.692c28.82-115.451,45.178-345.26,165.406-413.03
							c136.974-77.209,192.391,45.717,285.498-24.177c145.522-109.243,338.626-113.397,411.406,54.36
							c71.83,165.569-126.328,410.334-503.114,552.976c-258.718,132.952-275.868,187.748-292.82,327.358
							c-11.874,97.79,17.177,367.446-136.141,434.119c-153.318,66.673-278.259,148.847-255.285,268.334
							C1724.882,2431.196,1514.852,2553.407,1514.852,2553.407z"/>
					</defs>
					<clipPath id="SVGID_00000065768157599586824890000017446128923495067798_">
						<use xlink:href="#SVGID_00000124123071479095190090000008764261853744700854_"  style="overflow:visible;"/>
					</clipPath>
					<g style="opacity:0.5;clip-path:url(#SVGID_00000065768157599586824890000017446128923495067798_);">
						<path style="fill:#FCFDFE;" d="M1390.277,2467.727l-6.207-2.392c14.251-36.994,29.081-74.127,44.076-110.367
							c111.047-268.317,243.119-516.558,392.559-737.83c126.626-187.489,267.46-358.284,418.59-507.639
							c121.538-120.111,250.367-227.072,382.907-317.911c93.175-63.857,187.206-119.15,279.485-164.335
							c16.08-7.877,32.965-15.033,49.296-21.954c21.757-9.22,44.256-18.754,65.019-30.071l3.182,5.843
							c-21.049,11.473-43.698,21.073-65.603,30.357c-16.249,6.885-33.051,14.007-48.968,21.803
							c-91.989,45.043-185.74,100.17-278.651,163.848c-132.212,90.612-260.732,197.322-381.991,317.155
							c-150.819,149.048-291.371,319.503-417.753,506.63c-149.188,220.898-281.048,468.744-391.921,736.647
							C1419.318,2393.7,1404.509,2430.78,1390.277,2467.727z"/>
						<path style="fill:#FCFDFE;" d="M2067.634,1303.519l-5.166-4.194c180.104-221.633,191.987-710.878,192.084-715.793l6.654,0.132
							C2261.107,588.603,2249.18,1080.112,2067.634,1303.519z"/>
						<path style="fill:#FCFDFE;" d="M1618.163,1967.679l-5.617-3.566c104.775-164.943,476.038-220.062,479.777-220.601l0.948,6.589
							C2089.563,1750.635,1721.3,1805.313,1618.163,1967.679z"/>
						<path style="fill:#FCFDFE;" d="M1566.805,2066.406l-6.158-2.52c48.275-118.068,51.027-304.876,7.745-526.004
							c-2.176-11.12-2.176-11.12-1.714-12.295l6.19,2.443l-3.095-1.222l3.314-0.027c0.06,0.757,0.881,4.955,1.836,9.822
							C1618.45,1758.993,1615.569,1947.146,1566.805,2066.406z"/>
						<path style="fill:#FCFDFE;" d="M1417.24,2400.582l-5.179-4.174c88.162-109.389,296.545-109.401,298.637-109.388l-0.037,6.654
							C1708.596,2293.662,1503.384,2293.698,1417.24,2400.582z"/>
						<path style="fill:#FCFDFE;" d="M1380.39,2465.801c2.326-113.268-27.795-230.907-92.082-359.64l5.956-2.974
							c64.779,129.723,95.126,248.38,92.778,362.752L1380.39,2465.801z"/>
						<path style="fill:#FCFDFE;" d="M2548.779,851.856l-4.92-4.477c107.003-117.643,192.146-266.04,220.125-314.804
							c6.773-11.804,9.17-15.951,10.256-17.251l5.103,4.268c-0.816,1.003-4.687,7.751-9.589,16.295
							C2741.688,584.807,2656.272,733.676,2548.779,851.856z"/>
						<path style="fill:#FCFDFE;" d="M2346.508,1017.401l-3.384-5.729c128.381-75.879,416.984-0.672,429.208,2.566l-1.706,6.432
							C2767.66,1019.886,2472.491,942.941,2346.508,1017.401z"/>
					</g>
				</g>
			</g>
			<g>
				<defs>
					<path id="SVGID_00000018224153837716385740000002748661382121682367_" d="M1588.574,2388.906l262.912,160.266
						c0,0,131.704-104.699,125.295-239.154c-13.078-274.329,228.102-266.637,329.599-278.526
						c153.067-17.931,280.135-100.488,158.725-244.159c-121.409-143.671,175.656-286.474,427.031-279.805
						c245.989,6.526,399.533-426.979-131.581-489.991c-317.18-37.63-438.607,248.958-534.333,379.105
						c-95.726,130.146-307.055,16.921-339.442,227.451c-27.665,179.831,22.123,353.604-124.618,399.381
						S1539.072,2174.329,1588.574,2388.906z"/>
				</defs>
				<clipPath id="SVGID_00000063609720114979691230000009510058205048154245_">
					<use xlink:href="#SVGID_00000018224153837716385740000002748661382121682367_"  style="overflow:visible;"/>
				</clipPath>
				
					<linearGradient id="SVGID_00000169524126482966507390000005334841667695687819_" gradientUnits="userSpaceOnUse" x1="6327.9717" y1="-271.1924" x2="5715.0117" y2="1470.906" gradientTransform="matrix(0.8539 0.5205 -0.5205 0.8539 -2557.9978 -1919.8285)">
					<stop  offset="0.0036" style="stop-color:#E38DDD"/>
					<stop  offset="1" style="stop-color:#9571F6"/>
				</linearGradient>
				
					<path style="clip-path:url(#SVGID_00000063609720114979691230000009510058205048154245_);fill:url(#SVGID_00000169524126482966507390000005334841667695687819_);" d="
					M1588.574,2388.906l262.912,160.266c0,0,131.704-104.699,125.295-239.154c-13.078-274.329,228.102-266.637,329.599-278.526
					c153.067-17.931,262.608-94.881,179.425-238.821c-94.118-162.86,154.956-291.812,406.331-285.143
					c245.989,6.526,399.533-426.979-131.581-489.991c-317.18-37.63-438.607,248.958-534.333,379.105
					c-95.726,130.146-307.055,16.921-339.442,227.451c-27.665,179.831,22.123,353.604-124.618,399.381
					S1539.072,2174.329,1588.574,2388.906z"/>
				<g style="opacity:0.5;clip-path:url(#SVGID_00000063609720114979691230000009510058205048154245_);">
					<path style="fill:#BEB8F2;" d="M1687.488,2482.671l6.07,2.328c1.441-3.76,147.11-379.606,403.864-708.654
						c236.537-303.143,618.504-627.439,1094.924-450.882l2.26-6.095c-212.08-78.596-423.385-66.195-628.051,36.855
						c-163.492,82.319-323.083,222.358-474.34,416.226C1834.896,2102.263,1688.934,2478.904,1687.488,2482.671z"/>
					<path style="fill:#BEB8F2;" d="M2482.89,1402.978l5.929,2.67c88.924-197.23,317.499-415.058,319.796-417.236l-4.469-4.721
						C2801.839,985.88,2572.336,1204.592,2482.89,1402.978z"/>
					<path style="fill:#BEB8F2;" d="M2621.14,1338.054c257.802-2.515,398.319,159.753,399.706,161.392l4.959-4.2
						c-1.407-1.667-143.766-166.236-404.728-163.693L2621.14,1338.054z"/>
					<path style="fill:#BEB8F2;" d="M1941.285,2000.61c221.574-223.852,616.604-71.076,620.328-69.266l3.215-5.642
						c-3.487-2.123-404.621-155.505-628.162,70.336L1941.285,2000.61z"/>
					<path style="fill:#BEB8F2;" d="M2007.164,1888.681l6.126,2.182c67.475-189.321-44.306-416.031-45.445-418.3l-5.811,2.912
						C1963.161,1477.722,2073.702,1702.005,2007.164,1888.681z"/>
					<path style="fill:#BEB8F2;" d="M1717.781,2426.36c70.091-96.973,264.669-88.978,266.626-88.889l0.306-6.49
						c-8.132-0.386-200.042-8.264-272.199,91.572L1717.781,2426.36z"/>
					<path style="fill:#BEB8F2;" d="M1751.081,2336.893l6.041,2.4c34.944-87.916-31.345-249.991-53.129-303.25
						c-3.078-7.527-5.735-14.024-5.981-15.275l-6.396,1.161c0.321,1.769,2.075,6.094,6.36,16.574
						C1719.514,2091.162,1785.057,2251.413,1751.081,2336.893z"/>
				</g>
			</g>
			<g>
				
					<linearGradient id="SVGID_00000062194291687281673740000017001304760792830396_" gradientUnits="userSpaceOnUse" x1="3054.2214" y1="1308.8896" x2="1485.8191" y2="3563.467">
					<stop  offset="0" style="stop-color:#AA80F9"/>
					<stop  offset="0.9964" style="stop-color:#6165D7"/>
				</linearGradient>
				<path style="fill:url(#SVGID_00000062194291687281673740000017001304760792830396_);" d="M2287.807,2502.531
					c-1.266,0.249-2.534,0.494-3.804,0.735c-75.134,14.279-159.768,16.613-254.308-0.593c-18.192-4.654-36.384-9.308-54.576-13.961
					c-5.771-46.896-2.864-92.531,56.651-97.152c92.427-7.177,127.575-159.396,115.469-218.557
					c-14.983-73.225-46.373-244.443,96.339-257.785c118.807-11.108,197.744,6.006,236.516-135.475
					c38.773-141.482,136.25-213.888,264.246-177.272c134.695,38.534,286.103-119.095,384.875-34.033
					c172.106,148.219-72.888,425.472-329.883,465.532c-256.994,40.06-139.424,154.987-158.383,273.534
					c-25.883,161.841-234.726,80.865-305.445,131.341C2311.551,2455.941,2296.78,2478.684,2287.807,2502.531z"/>
				<g>
					<defs>
						<path id="SVGID_00000078027092373656105580000002795559837010171027_" d="M2275.031,2592.042l-297.21-66.776
							c-7.861-45.962-12.53-128.544,53.95-133.706c92.427-7.177,127.575-159.396,115.469-218.558
							c-14.984-73.224-46.374-244.441,96.339-257.784c118.807-11.108,197.744,6.007,236.516-135.475
							c38.773-141.481,136.25-213.888,264.246-177.272c134.695,38.533,286.103-119.095,384.875-34.032
							c172.105,148.218-72.888,425.471-329.883,465.531c-256.994,40.06-139.424,154.987-158.383,273.534
							c-25.883,161.842-234.726,80.865-305.445,131.341C2280.066,2478.414,2273.661,2548.188,2275.031,2592.042z"/>
					</defs>
					<clipPath id="SVGID_00000166657256612018325310000015871163239680521394_">
						<use xlink:href="#SVGID_00000078027092373656105580000002795559837010171027_"  style="overflow:visible;"/>
					</clipPath>
					<g style="opacity:0.5;clip-path:url(#SVGID_00000166657256612018325310000015871163239680521394_);">
						<path style="fill:#FCFDFE;" d="M2145.592,2513.85l-6.04-2.662c194.745-441.551,602.833-786.424,1065.01-900.033l1.575,6.41
							C2745.906,1730.695,2339.528,2074.133,2145.592,2513.85z"/>
						<path style="fill:#FCFDFE;" d="M2272.389,2282.21l-6.447-1.417c40.76-185.225-86.037-364.499-87.323-366.289l5.361-3.852
							C2185.284,1912.463,2313.791,2094.065,2272.389,2282.21z"/>
						<path style="fill:#FCFDFE;" d="M2183.631,2433.6l-5-4.309c125.533-145.646,471.88-93.954,475.364-93.414l-1.01,6.524
							C2649.539,2341.867,2306.777,2290.723,2183.631,2433.6z"/>
						<path style="fill:#FCFDFE;" d="M2589.641,1931.366l-5.353-3.865c89.358-123.619,46.436-353.545,45.993-355.852l6.48-1.25
							C2637.212,1572.734,2680.651,1805.463,2589.641,1931.366z"/>
						<path style="fill:#FCFDFE;" d="M2843.142,1759.107l-2.169-6.236c164.172-57.059,377.349,41.332,379.486,42.337l-2.802,5.978
							C3215.548,1800.191,3004.755,1702.934,2843.142,1759.107z"/>
					</g>
				</g>
			</g>
		</g>
		<g>
			<g>
				<path style="fill:#97A6B7;" d="M2204.46,1088.548l-69.727,0.12c-4.803-46.059-15.877-90.271-32.353-131.808l58.954-34.189
					c16.112-9.344,21.621-30.418,12.334-47.12L2148.895,831c-9.344-16.803-30.094-22.975-46.375-13.734l-58.221,33.044
					c-27.097-37.972-59.437-72.208-96.067-101.655l33.487-57.523c9.609-16.505,3.908-38.227-12.761-48.569l-44.568-27.653
					c-16.849-10.454-38.466-5.513-48.254,11.09l-33.563,56.935c-43.125-20.088-89.726-34.578-138.879-42.351v-67.517
					c0-19.918-16.385-36.812-36.66-37.738l-54.264-2.476c-20.535-0.937-37.235,14.625-37.235,34.762v68.259
					c-50.668,4.222-99.511,15.611-145.428,33.235l-36.223-61.71c-10.644-18.134-34.286-25.165-52.84-15.649l-49.624,25.451
					c-18.766,9.625-25.209,32.273-14.355,50.53l37.531,63.134c-41.078,29.041-77.8,63.807-108.904,103.227l-67.885-38.407
					c-19.246-10.889-43.945-5.244-55.13,12.67l-29.844,47.798c-11.259,18.033-4.575,41.435,14.893,52.209l70.244,38.872
					c-19.477,44.856-32.634,92.94-38.358,143.215l-84.26,0.145c-22.677,0.039-41.121,17.227-41.121,38.391v56.282
					c0,21.163,18.445,38.09,41.121,37.808l86.497-1.076c7.302,49.099,21.726,95.842,42.223,139.237l-76.347,43.331
					c-19.468,11.049-26.152,34.545-14.893,52.419l29.844,47.376c11.185,17.755,35.883,23.051,55.13,11.889l77.22-44.782
					c30.854,36.493,66.738,68.556,106.557,95.244l-44.519,75.52c-10.853,18.411-4.41,40.968,14.355,50.326l49.623,24.748
					c18.554,9.253,42.197,1.887,52.841-16.398l44.153-75.845c43.598,15.377,89.738,25.136,137.498,28.505v84.551
					c0,20.137,16.7,35.462,37.235,34.234l54.264-3.244c20.276-1.212,36.66-18.339,36.66-38.256v-83.632
					c46.354-7.923,90.438-21.791,131.477-40.653l40.965,68.91c9.788,16.464,31.405,21.099,48.254,10.407l44.568-28.284
					c16.669-10.578,22.369-32.38,12.76-48.749l-39.767-67.748c35.595-28.169,67.285-60.758,94.243-96.801l66.325,36.704
					c16.281,9.01,37.032,2.545,46.375-14.391l24.774-44.902c9.287-16.833,3.778-37.829-12.334-46.945l-64.138-36.287
					c17.369-40.748,29.526-84.126,35.66-129.311l71.604-0.891c18.457-0.23,33.375-15.823,33.375-34.829v-50.545
					C2237.835,1103.898,2222.917,1088.516,2204.46,1088.548z M1639.964,1504.633c-206.322,7.656-378.982-152.471-378.982-357.902
					c0-205.431,172.66-367.765,378.982-362.746c199.31,4.849,355.98,165.087,355.98,358.049
					C1995.944,1334.996,1839.274,1497.237,1639.964,1504.633z"/>
				<polygon style="fill:#97A6B7;" points="1409.099,589.104 1359.437,587.392 1342.312,631.916 				"/>
				<polygon style="fill:#97A6B7;" points="1901.536,609.654 1958.802,610.225 1958.802,652.465 				"/>
				<polygon style="fill:#97A6B7;" points="2119.774,813.415 2176.857,815.721 2162.586,847.687 				"/>
				<polygon style="fill:#97A6B7;" points="2209.394,1089.145 2267.047,1093.712 2248.21,1121.682 				"/>
				<polygon style="fill:#97A6B7;" points="2113.495,1484.726 2169.436,1492.718 2176.286,1447.052 				"/>
				<polygon style="fill:#97A6B7;" points="1899.436,1690.793 1949.669,1699.927 1953.665,1662.823 				"/>
				<polygon style="fill:#97A6B7;" points="1648.274,1779.842 1603.179,1771.85 1641.995,1714.197 				"/>
				<polygon style="fill:#97A6B7;" points="1403.962,1731.322 1351.446,1720.476 1391.974,1671.385 				"/>
				<polygon style="fill:#97A6B7;" points="1108.846,790.605 1163.645,792.317 1141.953,832.275 				"/>
				<polygon style="fill:#97A6B7;" points="999.818,1220.435 1050.051,1227.855 1046.055,1186.756 				"/>
				<polygon style="fill:#97A6B7;" points="1107.704,1521.259 1156.795,1529.25 1160.791,1496.713 				"/>
			</g>
			<path style="fill:#D8DEE8;" d="M2260.794,1093.075l-70.305,0.121c-4.843-46.434-16.008-91.007-32.621-132.882l59.443-34.468
				c16.245-9.42,21.801-30.666,12.436-47.504l-24.979-44.914c-9.421-16.94-30.344-23.162-46.76-13.846l-58.703,33.313
				c-27.322-38.281-59.93-72.796-96.864-102.483l33.765-57.992c9.688-16.64,3.941-38.538-12.867-48.964l-44.938-27.878
				c-16.989-10.539-38.785-5.558-48.654,11.18l-33.841,57.398c-43.483-20.251-90.47-34.86-140.03-42.696v-68.067
				c0-20.081-16.521-37.112-36.964-38.045l-54.714-2.496c-20.705-0.944-37.543,14.744-37.543,35.045v68.815
				c-51.088,4.256-100.336,15.738-146.634,33.506l-36.523-62.213c-10.733-18.282-34.571-25.37-53.278-15.777l-50.035,25.658
				c-18.922,9.703-25.418,32.535-14.474,50.942l37.842,63.648c-41.418,29.277-78.444,64.327-109.806,104.068l-68.448-38.72
				c-19.406-10.978-44.309-5.286-55.586,12.773l-30.091,48.187c-11.353,18.181-4.613,41.773,15.016,52.634l70.827,39.189
				c-19.639,45.222-32.904,93.697-38.676,144.382l-84.958,0.146c-22.865,0.039-41.462,17.367-41.462,38.703v56.74
				c0,21.335,18.598,38.4,41.462,38.116l87.215-1.085c7.363,49.499,21.906,96.623,42.573,140.372l-76.98,43.684
				c-19.629,11.139-26.369,34.826-15.016,52.846l30.091,47.762c11.278,17.9,36.181,23.238,55.586,11.985l77.86-45.147
				c31.109,36.79,67.291,69.115,107.441,96.019l-44.888,76.135c-10.943,18.561-4.447,41.302,14.474,50.736l50.035,24.95
				c18.708,9.328,42.546,1.902,53.279-16.531l44.518-76.463c43.96,15.503,90.482,25.341,138.638,28.738v85.24
				c0,20.301,16.838,35.751,37.543,34.513l54.714-3.271c20.444-1.222,36.964-18.488,36.964-38.568v-84.314
				c46.738-7.988,91.188-21.969,132.567-40.984l41.304,69.471c9.869,16.598,31.665,21.271,48.654,10.491l44.938-28.514
				c16.807-10.665,22.554-32.644,12.866-49.147l-40.096-68.3c35.89-28.399,67.842-61.253,95.024-97.59l66.875,37.003
				c16.416,9.083,37.338,2.565,46.76-14.508l24.979-45.269c9.364-16.97,3.809-38.137-12.436-47.327l-64.669-36.582
				c17.514-41.08,29.771-84.812,35.955-130.364l72.197-0.898c18.611-0.232,33.652-15.952,33.652-35.112v-50.957
				C2294.446,1108.55,2279.405,1093.043,2260.794,1093.075z M1691.619,1512.55c-208.032,7.718-382.123-153.713-382.123-360.818
				c0-207.104,174.092-370.761,382.123-365.701c200.962,4.888,358.931,166.431,358.931,360.966
				C2050.55,1341.532,1892.582,1505.094,1691.619,1512.55z"/>
		</g>
		<g>
			<g>
				<path style="fill:#97A6B7;" d="M3258.822,2883.381l-2700.157-23.517v69.581c0,18.885,11.777,34.944,27.727,37.806
					l763.524,137.018c9.061,1.626,18.25,2.057,27.394,1.286l1852.17-156.223c16.536-1.394,29.343-17.503,29.343-36.907V2883.381z"/>
				<g>
					<path style="fill:#97A6B7;" d="M2389.606,2770.586L588.382,2897.876c-32.232,2.278-58.439-21.925-58.439-54.065V1556.15
						c0-32.141,26.207-58.196,58.439-58.196h1801.224c26.554,0,48.024,23.553,48.024,52.608v1164.022
						C2437.63,2743.638,2416.16,2768.709,2389.606,2770.586z"/>
					<path style="fill:#97A6B7;" d="M2418.327,2770.586L617.103,2897.876c-32.233,2.278-58.439-21.925-58.439-54.065V1556.15
						c0-32.141,26.206-58.196,58.439-58.196h1801.224c26.555,0,48.024,23.553,48.024,52.608v1164.022
						C2466.351,2743.638,2444.882,2768.709,2418.327,2770.586z"/>
					<path style="fill:#FFFFFF;" d="M2362.214,2688.52L684.562,2799.089c-26.229,1.728-47.545-18.137-47.545-44.375V1627.365
						c0-26.238,21.315-47.597,47.545-47.706l1677.652-6.943c21.906-0.091,39.624,19.209,39.624,43.108v1026.813
						C2401.838,2666.535,2384.119,2687.077,2362.214,2688.52z"/>
					<path style="fill:#FFFFFF;" d="M1581.329,1533.175c0,11.964-9.271,21.691-20.719,21.726
						c-11.462,0.035-20.764-9.658-20.764-21.649c0-11.992,9.302-21.719,20.764-21.728
						C1572.058,1511.516,1581.329,1521.209,1581.329,1533.175z"/>
					<path style="opacity:0.48;fill:#FFFFFF;" d="M1984.35,2417.424c-138.859-74.712-248.042,19.957-353.412-73.449
						c-63.883-56.629-32.519-98.857-111.125-183.483c-87.062-93.729-143.744-62.222-231.24-146.58
						c-110.632-106.664-55.3-189.651-150.596-266.232c-115.608-92.905-240.284-6.916-350.334-96.014
						c-47.465-38.428-73.509-94.296-87.109-153.713H592.856c-18.869,0-34.192,15.293-34.192,34.159v1334.773
						c0,18.866,15.323,33.072,34.192,31.732l1835.743-130.305c9.009-0.639,16.997-5.899,22.124-13.525
						c-134.382-4.898-216.939-49.946-269.712-96.517C2077.773,2567.166,2095.679,2477.324,1984.35,2417.424z"/>
				</g>
				<path style="fill:#D8DEE8;" d="M2373.382,2764.813L558.664,2898.799l791.251,141.993c9.061,1.626,18.25,2.058,27.394,1.287
					l1881.513-158.698l-856.572-117.657C2392.67,2764.407,2383.009,2764.102,2373.382,2764.813z"/>
				<polygon style="opacity:0.3;fill:#D8DEE8;" points="823.46,2902.168 2334.267,2788.959 2801.848,2852.667 1304.056,2973.684 
									"/>
			</g>
			<g>
				<polygon style="fill:#D8DEE8;" points="2357.626,1893.265 679.8,1918.837 679.8,1613.857 2357.626,1613.857 				"/>
				<polygon style="fill:#D8DEE8;" points="1825.607,2437.254 762.618,2483.651 762.618,1971.943 1825.607,1952.842 				"/>
				<polygon style="fill:#D8DEE8;" points="2287.558,2086.306 1887.711,2096.571 1887.711,1951.726 2287.558,1944.541 				"/>
				<polygon style="fill:#D8DEE8;" points="2287.558,2417.092 1887.711,2434.544 1887.711,2147.871 2287.558,2136.514 				"/>
				<polygon style="fill:#D8DEE8;" points="2287.558,2482.067 762.618,2554.011 762.618,2675.542 2287.558,2594.298 				"/>
			</g>
		</g>
		<g>
			
				<linearGradient id="SVGID_00000129163312913436440600000017053215627091242173_" gradientUnits="userSpaceOnUse" x1="2210.0842" y1="935.2258" x2="1810.1235" y2="1319.6544">
				<stop  offset="0" style="stop-color:#311944"/>
				<stop  offset="1" style="stop-color:#A03976"/>
			</linearGradient>
			<path style="fill:url(#SVGID_00000129163312913436440600000017053215627091242173_);" d="M1412.038,2732.781
				c-35.282,1.021-69.697-7.87-99.506-25.735c-90.819-54.443-225.015-144.35-345.747-262.04
				c-153.198-149.344-241.219-301.149-260.478-450.22l-0.301-2.336l-3.737-636.073c0-125.708,81.993-227.749,235.931-294.8
				c127.184-55.396,295.755-82.845,473.839-77.691c176.012,5.095,338.881,41.411,459.431,101.924
				c143.299,71.934,218.488,173.025,218.488,292.878l-3.409,607.773l-0.276,2.235c-17.599,142.749-98.585,290.301-241.725,439.512
				c-114.812,119.675-244.55,214.517-333.652,273.28C1481.418,2720.932,1447.241,2731.763,1412.038,2732.781z"/>
			
				<linearGradient id="SVGID_00000153674025503505027710000010279476546073367681_" gradientUnits="userSpaceOnUse" x1="1119.2933" y1="2200.625" x2="435.9753" y2="3339.4866">
				<stop  offset="0" style="stop-color:#FF9085"/>
				<stop  offset="1" style="stop-color:#FB6FBB"/>
			</linearGradient>
			<path style="fill:url(#SVGID_00000153674025503505027710000010279476546073367681_);" d="M1446.968,2732.781
				c-34.816,1.021-68.776-7.87-98.192-25.735c-89.62-54.443-222.043-144.35-341.18-262.04
				c-151.173-149.344-238.031-301.149-257.034-450.22l-0.299-2.336l-3.688-636.073c0-125.708,80.909-227.749,232.812-294.8
				c125.504-55.396,291.847-82.845,467.58-77.691c173.686,5.095,334.404,41.411,453.36,101.924
				c141.409,71.934,215.602,173.025,215.602,292.878l-3.365,607.773l-0.272,2.235c-17.366,142.749-97.282,290.301-238.531,439.512
				c-113.296,119.675-241.319,214.517-329.244,273.28C1515.431,2720.932,1481.705,2731.763,1446.968,2732.781z"/>
			
				<linearGradient id="SVGID_00000051341820262939862630000014751207375479226283_" gradientUnits="userSpaceOnUse" x1="1742.26" y1="2288.884" x2="638.097" y2="68.6401">
				<stop  offset="0" style="stop-color:#FF9085"/>
				<stop  offset="1" style="stop-color:#FB6FBB"/>
			</linearGradient>
			<path style="fill:url(#SVGID_00000051341820262939862630000014751207375479226283_);" d="M788.573,1356.834l3.713,632.86
				c41.658,322.902,421.14,584.333,586.418,683.659c47.346,28.453,107.88,26.767,154.892-4.168
				c161.827-106.486,520.525-374.565,558.851-685.022l3.404-606.098C2095.85,928.392,788.573,887.283,788.573,1356.834z"/>
			
				<linearGradient id="SVGID_00000078004620148712761360000010849108803499888298_" gradientUnits="userSpaceOnUse" x1="913.8806" y1="1858.1605" x2="1980.0079" y2="1858.1605">
				<stop  offset="0" style="stop-color:#311944"/>
				<stop  offset="1" style="stop-color:#893976"/>
			</linearGradient>
			<path style="fill:url(#SVGID_00000078004620148712761360000010849108803499888298_);" d="M1456.347,2575.805
				c-3.03,0.07-7.615-0.433-12.247-3.242c-68.052-41.21-199.969-127.528-314.733-240.255
				c-123.961-121.766-195.455-240.152-211.85-351.341l-3.637-622.38c0.151-59.717,47.423-110.826,140.086-151.72
				c103.443-45.655,250.346-69.61,402.382-65.999c150.519,3.573,293.135,33.874,391.938,82.902
				c87.397,43.366,131.581,94.49,131.722,152.142l-3.389,600.832c-15.301,107.596-82.403,223.59-200.218,345.522
				c-110.777,114.647-240.18,205.529-307.816,249.724C1463.957,2575.01,1459.376,2575.732,1456.347,2575.805z"/>
			
				<linearGradient id="SVGID_00000052078463911025146400000015841873223260044199_" gradientUnits="userSpaceOnUse" x1="1740.1254" y1="1206.5063" x2="958.1821" y2="2424.9946">
				<stop  offset="0" style="stop-color:#FCB148"/>
				<stop  offset="0.0521" style="stop-color:#FDBA46"/>
				<stop  offset="0.1424" style="stop-color:#FFC244"/>
				<stop  offset="0.3183" style="stop-color:#FFC444"/>
				<stop  offset="0.4849" style="stop-color:#FDB946"/>
				<stop  offset="0.7754" style="stop-color:#F99C4D"/>
				<stop  offset="0.8658" style="stop-color:#F8924F"/>
				<stop  offset="1" style="stop-color:#F8924F"/>
			</linearGradient>
			<path style="fill:url(#SVGID_00000052078463911025146400000015841873223260044199_);" d="M1440.818,2533.263
				c-68.726-42.328-190.933-124.062-297.557-228.995c-116.495-114.65-183.91-224.667-199.759-326.465l-3.609-618.767
				c0.108-42.697,39.354-81.862,116.354-115.954c97.992-43.39,238.389-66.253,384.568-62.972
				c144.777,3.251,281.239,31.846,375.017,78.245c72.864,36.051,109.726,75.376,109.826,117.019l-3.382,598.622
				c-14.869,98.768-78.457,206.786-189.654,321.658C1629.384,2402.306,1509.231,2488.066,1440.818,2533.263z"/>
			<g>
				
					<linearGradient id="SVGID_00000006695196836278286850000008376663563433517198_" gradientUnits="userSpaceOnUse" x1="1206.8901" y1="2498.3413" x2="1494.7216" y2="1826.7349">
					<stop  offset="0" style="stop-color:#311944"/>
					<stop  offset="1" style="stop-color:#893976"/>
				</linearGradient>
				<path style="fill:url(#SVGID_00000006695196836278286850000008376663563433517198_);" d="M1686.724,1723.13l-462.786,4.117
					c-35.576,0.317-64.561,28.05-64.561,61.926v296.512c0,33.677,28.877,59.78,64.324,58.328l461.153-18.882
					c32.801-1.343,59.402-28.496,59.57-60.673l1.465-283.258C1746.056,1748.845,1719.638,1722.837,1686.724,1723.13z"/>
				
					<linearGradient id="SVGID_00000031189815998743254200000006695274907923680412_" gradientUnits="userSpaceOnUse" x1="1875.0316" y1="1293.5135" x2="1093.0905" y2="2511.9988">
					<stop  offset="0" style="stop-color:#FCB148"/>
					<stop  offset="0.0521" style="stop-color:#FDBA46"/>
					<stop  offset="0.1424" style="stop-color:#FFC244"/>
					<stop  offset="0.3183" style="stop-color:#FFC444"/>
					<stop  offset="0.4849" style="stop-color:#FDB946"/>
					<stop  offset="0.7754" style="stop-color:#F99C4D"/>
					<stop  offset="0.8658" style="stop-color:#F8924F"/>
					<stop  offset="1" style="stop-color:#F8924F"/>
				</linearGradient>
				<path style="fill:url(#SVGID_00000031189815998743254200000006695274907923680412_);" d="M1518.654,1893.161
					c0.103-32.748-28.004-58.635-62.324-56.465c-30.386,1.918-55.592,26.458-57.297,55.907
					c-1.323,22.842,11.032,42.632,29.84,52.676c7.995,4.271,11.949,13.222,10.372,22.058l-13.375,74.904
					c-1.702,9.534,5.855,17.923,15.819,17.573l33.856-1.188c9.898-0.346,17.427-9.216,15.792-18.587l-12.941-74.193
					c-1.546-8.859,3.019-17.642,11.045-22.467C1506.88,1932.887,1518.586,1914.212,1518.654,1893.161z"/>
				
					<linearGradient id="SVGID_00000044876823127451007450000003036733851688764549_" gradientUnits="userSpaceOnUse" x1="1099.0022" y1="2452.1052" x2="1386.833" y2="1780.5004">
					<stop  offset="0" style="stop-color:#311944"/>
					<stop  offset="1" style="stop-color:#893976"/>
				</linearGradient>
				<path style="fill:url(#SVGID_00000044876823127451007450000003036733851688764549_);" d="M1680.224,1693.719
					c-13.898,0.091-25.138-10.951-25.078-24.666l0.281-64.59c0.283-64.872-53.347-118.239-120.186-118.902l-151.055-1.499
					c-69.175-0.688-126.051,53.253-126.11,120.176l-0.058,66.631c-0.012,14.148-12.057,25.694-26.935,25.791
					c-14.911,0.097-27.018-11.337-27.013-25.545l0.026-66.908c0.038-95.646,81.492-172.45,180.189-171.078l151.122,2.1
					c94.938,1.319,170.774,77.304,170.331,169.262l-0.309,64.333C1705.362,1682.484,1694.09,1693.628,1680.224,1693.719z"/>
			</g>
		</g>
		<g>
			
				<linearGradient id="SVGID_00000129897118101066320200000012265331819238813074_" gradientUnits="userSpaceOnUse" x1="2497.6606" y1="2955.425" x2="2516.7507" y2="3299.0518">
				<stop  offset="0" style="stop-color:#444B8C"/>
				<stop  offset="0.9964" style="stop-color:#26264F"/>
			</linearGradient>
			<path style="fill:url(#SVGID_00000129897118101066320200000012265331819238813074_);" d="M2545.481,3077.613
				c0,0,2.388,18.996,0.785,25.359c-1.604,6.365-56.832,10.962-75.58,8.75c-18.746-2.213,11.166-21.362,23.112-24.956
				C2505.742,3083.173,2545.481,3077.613,2545.481,3077.613z"/>
			
				<linearGradient id="SVGID_00000154394789613797442280000017807487535741401502_" gradientUnits="userSpaceOnUse" x1="2530.1426" y1="3097.5183" x2="2541.5225" y2="2840.3369">
				<stop  offset="0" style="stop-color:#FFC444"/>
				<stop  offset="0.9964" style="stop-color:#F36F56"/>
			</linearGradient>
			<path style="fill:url(#SVGID_00000154394789613797442280000017807487535741401502_);" d="M2517.68,3045.925l5.822,38.11
				c0,0,14.844,6.673,21.98,0.079l0.785-39.892L2517.68,3045.925z"/>
			
				<linearGradient id="SVGID_00000125604742061663588910000014356066766093274510_" gradientUnits="userSpaceOnUse" x1="2843.1909" y1="2936.2314" x2="2862.2808" y2="3279.8513">
				<stop  offset="0" style="stop-color:#444B8C"/>
				<stop  offset="0.9964" style="stop-color:#26264F"/>
			</linearGradient>
			<path style="fill:url(#SVGID_00000125604742061663588910000014356066766093274510_);" d="M2829.026,3044.222
				c0,0-11.719,8.696-8.594,19.111c3.123,10.414,30.468,52.144,49.956,63.987c19.487,11.845,13.378-12.831,7.708-28.2
				c-5.671-15.369-20.161-49.223-25.819-54.898C2846.621,3038.548,2829.026,3044.222,2829.026,3044.222z"/>
			
				<linearGradient id="SVGID_00000137130476936572692940000013663540681707876251_" gradientUnits="userSpaceOnUse" x1="2833.5466" y1="3110.9431" x2="2844.9265" y2="2853.7627">
				<stop  offset="0" style="stop-color:#FFC444"/>
				<stop  offset="0.9964" style="stop-color:#F36F56"/>
			</linearGradient>
			<path style="fill:url(#SVGID_00000137130476936572692940000013663540681707876251_);" d="M2807.947,3002.352
				c5.665,15.79,11.113,28.773,15.375,38.348c9.429,21.184,14.582,29.133,20.418,36.024c5.089,6.002,17.139,18.81,20.378,16.678
				c3.29-2.162-5.526-17.734-22.518-63.341c-2.468-6.619-10.26-27.71-10.26-27.71l0,0H2807.947z"/>
			
				<linearGradient id="SVGID_00000020371035788181663520000003816993278911645616_" gradientUnits="userSpaceOnUse" x1="2494.3918" y1="2698.2266" x2="2712.8813" y2="2664.0874">
				<stop  offset="0" style="stop-color:#444B8C"/>
				<stop  offset="0.9964" style="stop-color:#26264F"/>
			</linearGradient>
			<path style="fill:url(#SVGID_00000020371035788181663520000003816993278911645616_);" d="M2402.018,2342.553
				c-4.042,39.69-7.92,101.291-2.122,176.055c7.557,97.407,27.034,159.045,51.46,262.904
				c14.928,63.472,35.042,156.89,53.245,273.723c4.224,2.417,16.649,8.774,32.646,6.4c8.957-1.33,15.656-4.891,19.612-7.45
				c47.758-145.935,33.653-236.371,10.605-292.714c-9.823-24.018-21.735-42.965-28.102-79.884
				c-8.424-48.844,1.991-76.149,16.846-189.291c10.589-80.642,8.756-93.107,1.711-105.2
				C2529.761,2338.742,2443.629,2339.688,2402.018,2342.553z"/>
			
				<linearGradient id="SVGID_00000041260424720313487190000010252932129518240159_" gradientUnits="userSpaceOnUse" x1="2512.2717" y1="2468.5757" x2="3140.4282" y2="3052.3516">
				<stop  offset="0" style="stop-color:#444B8C"/>
				<stop  offset="0.9964" style="stop-color:#26264F"/>
			</linearGradient>
			<path style="fill:url(#SVGID_00000041260424720313487190000010252932129518240159_);" d="M2566.406,2359.524
				c29.256,151.091,57.971,230.447,79.701,275.332c5.359,11.069,23.239,46.781,40.141,97.98c14.964,45.32,21.2,78.659,24.393,93.331
				c10.087,46.314,35.017,113.937,102.094,202.632c0.836,0.491,12.274,6.96,23.208,1.194c5.534-2.921,8.293-7.575,9.388-9.744
				c-8.769-84.799-18.835-156.058-27.573-211.053c-1.834-11.534-9.908-62-22.57-128.672c-4.956-26.094-12.216-64.323-20.914-103.59
				c-10.829-48.9-27.435-115.423-53.028-195.138C2669.633,2374.37,2618.019,2366.95,2566.406,2359.524z"/>
			
				<linearGradient id="SVGID_00000035504610016763794720000011278166455033306801_" gradientUnits="userSpaceOnUse" x1="2844.8306" y1="2101.8474" x2="2711.2004" y2="1912.538">
				<stop  offset="0" style="stop-color:#444B8C"/>
				<stop  offset="0.9964" style="stop-color:#26264F"/>
			</linearGradient>
			<path style="fill:url(#SVGID_00000035504610016763794720000011278166455033306801_);" d="M2541.481,1761.897
				c-16.592-15.337-48.335-33.017-64.256-74.118c-4.793-12.371-21.772-56.207,3.274-89.738
				c14.865-19.905,42.478-33.42,66.815-28.635c20.798,4.089,24.05,18.573,59.39,47.725c13.756,11.347,35.867,29.586,60.476,39.726
				c42.161,17.376,67.491,1.026,109.819,2.89c52,2.293,112.406,31.313,141.51,73.514c51.656,74.899-23.172,150.88,33.408,238.626
				c18.54,28.747,27.677,22.302,71.588,77.951c43.969,55.723,65.955,83.58,62.043,117.722
				c-5.429,47.383-56.466,92.647-104.526,95.723c-46.948,3.009-76.792-33.929-100.693-17.772
				c-17.011,11.496-7.285,33.861-25.353,60.737c-23.29,34.651-69.068,41.555-76.461,42.668
				c-68.623,10.352-161.148-70.115-200.446-165.448C2507.208,2011.559,2631.687,1845.278,2541.481,1761.897z"/>
			
				<linearGradient id="SVGID_00000089565402066929647980000009819778928212698764_" gradientUnits="userSpaceOnUse" x1="2587.0168" y1="1719.4156" x2="2697.3147" y2="2393.9307">
				<stop  offset="0" style="stop-color:#FF9085"/>
				<stop  offset="1" style="stop-color:#FB6FBB"/>
			</linearGradient>
			<path style="fill:url(#SVGID_00000089565402066929647980000009819778928212698764_);" d="M2259.903,1809.622
				c-0.466-47.986,108.538-86.334,158.414-98.688c77.585-19.221,139.712-7.152,154.803-3.96
				c96.757,20.502,157.018,78.561,179.698,102.964c-18.572,12.093-69.823,48.993-95.206,118.996
				c-7.898,21.781-31.229,96.239,2.138,165.982c19.225,40.188,53.236,70.357,79.064,93.275
				c38.743,34.37,58.807,39.653,71.795,70.444c14.145,33.532-0.108,49.881,17.457,72.837c18.865,24.652,40.967,13.193,72.943,38.124
				c32.755,25.533,21.098,46.55,50.907,74.769c43.313,41,100.73,27.684,103.404,46.135c2.301,15.87-38.507,37.402-73.178,46.134
				c-68.661,17.295-128.549-11.733-146.357-20.681c-49.306-24.77-40.789-40.803-78.38-59.688
				c-62.946-31.618-105.963,3.567-249.333,7.19c-77.638,1.964-116.895,2.404-138.403-23.863
				c-19.641-23.993-9.316-50.311,2.47-163.733c5.61-53.983,7.634-108.282,11.769-162.395
				c11.695-153.076,12.052-166.547,1.67-187.713C2348.387,1849.939,2260.322,1852.687,2259.903,1809.622z"/>
			<g style="opacity:0.3;">
				
					<linearGradient id="SVGID_00000178206341881520401320000004221320764881521082_" gradientUnits="userSpaceOnUse" x1="2700.6191" y1="1700.8386" x2="2810.917" y2="2375.3542">
					<stop  offset="0" style="stop-color:#FFC444"/>
					<stop  offset="0.9964" style="stop-color:#F36F56"/>
				</linearGradient>
				<path style="fill:url(#SVGID_00000178206341881520401320000004221320764881521082_);" d="M2951.918,2444.366
					c-29.809-28.219-18.152-49.236-50.907-74.769c-31.976-24.932-54.078-13.473-72.943-38.124
					c-17.565-22.956-3.312-39.305-17.457-72.837c-12.989-30.791-33.053-36.074-71.795-70.444
					c-25.829-22.918-59.84-53.088-79.064-93.275c-33.367-69.742-10.036-144.201-2.138-165.982
					c25.382-70.003,76.634-106.903,95.206-118.996c-1.788-1.927-3.897-4.121-6.152-6.432
					c-122.365,16.816-193.709,87.52-202.533,108.457c-20.396,48.396,11.893,66.175,12.727,205.753
					c0.397,66.715-6.798,93.058,14.847,120.904c24.757,31.847,53.286,21.992,89.087,63.634
					c27.508,31.99,23.102,52.274,48.787,65.752c27.618,14.49,45.209-2.399,76.36,4.244c52.041,11.098,63.167,71.103,97.571,103.933
					c26.016,24.824,74.118,42.181,168.981,23.552c2.194-3.194,3.254-6.313,2.829-9.234
					C3052.648,2472.051,2995.23,2485.367,2951.918,2444.366z"/>
			</g>
			
				<linearGradient id="SVGID_00000059284982222230007900000000168082417158139536_" gradientUnits="userSpaceOnUse" x1="2677.8035" y1="1704.5703" x2="2788.1008" y2="2379.0837">
				<stop  offset="0" style="stop-color:#FF9085"/>
				<stop  offset="1" style="stop-color:#FB6FBB"/>
			</linearGradient>
			<path style="fill:url(#SVGID_00000059284982222230007900000000168082417158139536_);" d="M2581.252,1949.616
				c-13.008,27.622,46.764,91.958,113.199,122.506c13.535,6.227,110.739,50.919,154.062,7.942
				c35.798-35.515,12.694-108.948,4.445-135.165c-40.5-128.735-164.882-194.22-217.008-217.839
				c-38.901,97.27-15.991,140.615-6.973,154.15c9.42,14.137,35.711,43.835,63.634,69.997c19.641,18.401,31.872,27.355,30.226,30.226
				c-2.046,3.573-25.069-3.176-114.491-46.701C2597.98,1936.411,2585.697,1940.183,2581.252,1949.616z"/>
			
				<linearGradient id="SVGID_00000024707527388447843290000017042592888277904061_" gradientUnits="userSpaceOnUse" x1="2206.7322" y1="1931.7379" x2="2613.6311" y2="1931.7379">
				<stop  offset="0" style="stop-color:#AA80F9"/>
				<stop  offset="0.9964" style="stop-color:#6165D7"/>
			</linearGradient>
			<path style="fill:url(#SVGID_00000024707527388447843290000017042592888277904061_);" d="M2207.092,1790.919l43.875,218.505
				c1.406,7.002,6.833,12.501,13.816,13.999l327.155,70.211c11.724,2.516,22.566-6.963,21.636-18.917l-17.266-222.226
				c-0.6-7.712-6.063-14.162-13.574-16.015c-51.896-12.808-251.645-60.776-356.997-67.008
				C2213.971,1768.771,2204.772,1779.362,2207.092,1790.919z"/>
			
				<linearGradient id="SVGID_00000155828520839497988450000003289328344533593253_" gradientUnits="userSpaceOnUse" x1="2490.4172" y1="1753.5293" x2="2725.9763" y2="1486.1068">
				<stop  offset="0" style="stop-color:#FFC444"/>
				<stop  offset="0.9964" style="stop-color:#F36F56"/>
			</linearGradient>
			<path style="fill:url(#SVGID_00000155828520839497988450000003289328344533593253_);" d="M2533.404,1631.336
				c0,0,6.172,49.334,24.38,60.638c18.209,11.297,47.645,26.063,50.888,30.071c3.243,4.003-112.799,16.48-170.306-12.54l0,0
				c18.951-3.953,24.104-5.407,24.104-5.407c5.143-1.455,14.737-4.158,24.356-9.639c6.546-3.728,17.098-11.011,26.777-24.764
				l-0.211-27.317L2533.404,1631.336z"/>
			
				<linearGradient id="SVGID_00000037691744873893308390000008772744963867311524_" gradientUnits="userSpaceOnUse" x1="4500.3584" y1="3549.0955" x2="4746.1592" y2="3752.7917" gradientTransform="matrix(0.8633 0.5047 -0.5047 0.8633 1680.6096 -259.5109)">
				<stop  offset="0" style="stop-color:#FFC444"/>
				<stop  offset="0.9964" style="stop-color:#F36F56"/>
			</linearGradient>
			<path style="fill:url(#SVGID_00000037691744873893308390000008772744963867311524_);" d="M2536.173,1648.809
				c0,0-11.872,16.295-30.491,9.505c-16.67-6.08-6.721-49.137,6.502-54.048c4.41-1.638,12.51-0.914,17.924,2.464
				c3.808,2.376,13.977,15.007,8.148,29.163c4.211-1.221,7.918-0.112,8.846,1.974c1.178,2.645-2.388,6.248-3.196,7.063
				C2541.107,1647.759,2537.729,1648.551,2536.173,1648.809z"/>
			
				<linearGradient id="SVGID_00000160180134505475575240000000463582547495878275_" gradientUnits="userSpaceOnUse" x1="2206.7322" y1="1930.1639" x2="2579.1936" y2="1930.1639">
				<stop  offset="0" style="stop-color:#AA80F9"/>
				<stop  offset="0.9964" style="stop-color:#6165D7"/>
			</linearGradient>
			<path style="opacity:0.3;fill:url(#SVGID_00000160180134505475575240000000463582547495878275_);" d="M2501.71,1979.842
				c-35.136-9.907-64.275,14.696-92.269-4.772c-28.674-19.942-9.96-54.002-39.771-87.496c-31.874-35.813-72.31-18.27-101.814-50.906
				c-10.951-12.119-20.804-31.862-20.956-65.524c-7.392-0.714-14.471-1.28-21.163-1.677c-11.766-0.696-20.966,9.899-18.646,21.451
				l43.876,218.505c1.405,7.004,6.832,12.503,13.815,14.001l314.41,67.473C2556.994,2013.013,2527.37,1987.074,2501.71,1979.842z"/>
			
				<linearGradient id="SVGID_00000106846816437309299380000014150182761860589709_" gradientUnits="userSpaceOnUse" x1="2332.5774" y1="1942.4741" x2="2578.3789" y2="2146.1709">
				<stop  offset="0" style="stop-color:#FFC444"/>
				<stop  offset="0.9964" style="stop-color:#F36F56"/>
			</linearGradient>
			<path style="fill:url(#SVGID_00000106846816437309299380000014150182761860589709_);" d="M2227.915,1907.161
				c0,0-20.869-19.29-23.14-41.697c-2.271-22.408,13.479-40.339,28.736-44.909c15.257-4.57,23.4,2.17,13.158,24.234
				C2236.425,1866.854,2220.178,1881.175,2227.915,1907.161z"/>
		</g>
	</g>
</g>
</svg>
