<svg xmlns="http://www.w3.org/2000/svg" version="1.1" xmlns:xlink="http://www.w3.org/1999/xlink" width="512" height="512" x="0" y="0" viewBox="0 0 24 24" style="enable-background:new 0 0 512 512" xml:space="preserve" class=""><g><g fill="#009393"><path d="M13.2 12.2h-2.4v-1.3c-2.1.1-3.8.6-4.3 1.1.5.6 2.8 1.1 5.5 1.1s5-.5 5.5-1.1c-.5-.5-2.2-.9-4.3-1z" fill="#009393" opacity="1" data-original="#009393" class=""></path><path d="M12 1C5.9 1 1 5.9 1 12s4.9 11 11 11 11-4.9 11-11S18.1 1 12 1zm5.7 11.7c0 .7-1.9 1.2-4.5 1.3v3.1h-2.4V14c-2.5-.1-4.4-.7-4.4-1.3v-1.4c0-.7 1.9-1.2 4.4-1.3V8.7H7.2V6.9h9.6v1.8h-3.6V10c2.5.1 4.4.7 4.5 1.3z" fill="#009393" opacity="1" data-original="#009393" class=""></path></g></g></svg>